<?xml version="1.0" encoding="utf-8"?>
<!-- Generator: Adobe Illustrator 25.2.1, SVG Export Plug-In . SVG Version: 6.00 Build 0)  -->
<svg version="1.1" id="Layer_1" xmlns="http://www.w3.org/2000/svg" xmlns:xlink="http://www.w3.org/1999/xlink" x="0px" y="0px"
	 viewBox="0 0 1366 886" style="enable-background:new 0 0 1366 886;" xml:space="preserve">
<style type="text/css">
	.st0{fill:#FFFFFF;}
	.st1{fill:none;stroke:#999999;stroke-width:0.3159;stroke-miterlimit:10;}
	.st2{fill:#4A4A4A;}
	.st3{font-family:'Avenir-Book';}
	.st4{font-size:9.7171px;}
	.st5{font-family:'Avenir-Light';}
	.st6{font-size:8.5024px;}
	.st7{fill-rule:evenodd;clip-rule:evenodd;fill:#D8D8D8;stroke:#979797;stroke-width:0.6037;}
	.st8{font-family:'Avenir-Medium';}
	.st9{fill:#9B9B9B;}
	.st10{font-family:'HiraKakuStd-W8-83pv-RKSJ-H';}
	.st11{fill:none;stroke:#9B9B9B;stroke-width:0.6037;}
	.st12{fill-rule:evenodd;clip-rule:evenodd;fill:#CFCFCF;}
	.st13{font-size:7.2879px;}
	.st14{fill:none;stroke:#999999;stroke-width:0.3238;stroke-miterlimit:10;}
	.st15{fill-rule:evenodd;clip-rule:evenodd;fill:#D8D8D8;fill-opacity:0.7045;}
	.st16{font-family:'LucidaGrande';}
	.st17{font-size:7.394px;}
	.st18{font-size:8.6263px;}
	.st19{font-size:9.8586px;}
	.st20{font-size:44.364px;}
	.st21{font-size:14.788px;}
	.st22{font-family:'LucidaGrande-Bold';}
	.st23{fill:#FB7000;}
	.st24{fill-rule:evenodd;clip-rule:evenodd;fill:#D8D8D8;stroke:#979797;stroke-width:0.6126;}
	.st25{fill:none;stroke:#999999;stroke-width:0.2581;stroke-miterlimit:10;}
	.st26{font-size:7.4689px;}
	.st27{fill-rule:evenodd;clip-rule:evenodd;fill:#F0F0F0;}
	.st28{fill-rule:evenodd;clip-rule:evenodd;fill:#D8D8D8;stroke:#979797;stroke-width:0.6186;}
	.st29{fill:none;stroke:#979797;stroke-width:0.6186;}
	.st30{fill:none;stroke:#4A4A4A;stroke-width:1.2374;}
	.st31{font-size:8.7136px;}
	.st32{font-size:9.9584px;}
	.st33{fill:none;stroke:#999999;stroke-width:0.2518;stroke-miterlimit:10;}
	.st34{fill:none;}
	.st35{fill:none;stroke:#999999;stroke-width:0.2565;stroke-miterlimit:10;}
	.st36{font-size:6.8464px;}
</style>
<g>
	<g>
		
			<image style="overflow:visible;opacity:0.73;enable-background:new    ;" width="188" height="555" xlink:href="B4833B72991158DD.png"  transform="matrix(1.1543 0 0 1.1543 6 63.6026)">
		</image>
		<g>
			<rect x="15.1" y="73.8" class="st0" width="192.6" height="617.4"/>
			<rect x="15.1" y="73.8" class="st1" width="192.6" height="617.4"/>
		</g>
	</g>
	<g id="sign-in">
		<g id="H1_4_" transform="translate(-7.000000, 431.000000)">
			<text transform="matrix(0.9881 0 0 1 98.8057 -72.0918)" class="st2 st3 st4">RECIPES</text>
		</g>
		<g id="H1_1_" transform="translate(27.000000, 677.000000)">
			<text transform="matrix(0.9881 0 0 1 53.6724 -168.6904)" class="st2 st3 st4">OUR CHEFFES</text>
		</g>
		<text transform="matrix(0.9881 0 0 1 66.4126 114.0962)" class="st2 st5 st6">IDEA OF THE PROJECT</text>
		<g id="Group-2" transform="translate(20.000000, 754.000000)">
			<ellipse id="Oval_3_" class="st7" cx="25.5" cy="-202.6" rx="18.6" ry="18.8"/>
			<text transform="matrix(0.9881 0 0 1 14.1147 -171.5977)" class="st2 st8 st6">name</text>
		</g>
		<g id="Group-2-Copy" transform="translate(139.000000, 754.000000)">
			<ellipse id="Oval_1_" class="st7" cx="-22.1" cy="-202.6" rx="18.6" ry="18.8"/>
			<text transform="matrix(0.9881 0 0 1 -33.4727 -171.5977)" class="st2 st8 st6">name</text>
		</g>
		<g id="Group-2-Copy-2" transform="translate(248.000000, 754.000000)">
			<ellipse id="Oval_2_" class="st7" cx="-65.7" cy="-202.6" rx="18.6" ry="18.8"/>
			<text transform="matrix(0.9881 0 0 1 -77.063 -171.5977)" class="st2 st8 st6">name</text>
		</g>
		<text transform="matrix(0.9881 0 0 1 89.4033 143.3105)" class="st9 st10 st6">SIGN IN</text>
		<path id="Rectangle_4_" class="st11" d="M84.2,130.1h49.6c2.6,0,4.8,2.2,4.8,4.9v11.1c0,2.7-2.1,4.9-4.8,4.9H84.2
			c-2.6,0-4.8-2.2-4.8-4.9V135C79.5,132.3,81.6,130.1,84.2,130.1z"/>
		<g id="Group-3" transform="translate(-4.000000, 157.000000)">
			<g id="button_or">
				<g id="button">
					<path id="button-bg" class="st12" d="M24.8,13.2h89.4c0.6,0,1.1,0.5,1.1,1.2V34c0,0.7-0.5,1.2-1.1,1.2H24.8
						c-0.6,0-1.1-0.6-1.1-1.2V14.4C23.7,13.7,24.2,13.2,24.8,13.2z"/>
					<text transform="matrix(0.923 0 0 1 51.4229 27.001)" class="st0 st10 st13">CLASSES</text>
				</g>
			</g>
			<g id="button_or_1_" transform="translate(165.000000, 0.000000)">
				<g id="button_1_">
					<path id="button-bg_1_" class="st12" d="M-47.3,13.2h89.4c0.6,0,1.1,0.5,1.1,1.2V34c0,0.7-0.5,1.2-1.1,1.2h-89.4
						c-0.6,0-1.1-0.5-1.1-1.2V14.4C-48.5,13.7-48,13.2-47.3,13.2z"/>
					<text transform="matrix(0.923 0 0 1 -19.6567 27.001)" class="st0 st10 st13">RECIPES</text>
				</g>
			</g>
		</g>
		<g id="H1_2_" transform="translate(0.000000, 213.000000)">
			<text transform="matrix(0.9881 0 0 1 57.9419 13.5137)" class="st2 st3 st4">UPCOMING CLASSES</text>
		</g>
		<g id="H1_3_" transform="translate(6.000000, 872.000000)">
			<text transform="matrix(0.9881 0 0 1 69.1626 -245.2637)" class="st2 st3 st4">DONE CLASSES</text>
		</g>
		<rect id="Rectangle-Copy" x="20.9" y="238.6" class="st12" width="181" height="41.8"/>
		<rect id="Rectangle-Copy-4" x="15.1" y="72.7" class="st12" width="191.5" height="22"/>
		<rect id="Rectangle-Copy-2" x="20.9" y="290.8" class="st12" width="181" height="41.8"/>
		<rect id="Rectangle-Copy-3" x="20.9" y="642.5" class="st12" width="181" height="41.8"/>
		<text transform="matrix(0.9881 0 0 1 77.8574 87.9814)" class="st2 st5 st6">header with name</text>
		<g id="Group-Copy-8" transform="translate(10.000000, 487.000000)">
			<text transform="matrix(0.9881 0 0 1 76.3237 -17.5596)" class="st2 st8 st6">stars</text>
			<text transform="matrix(0.9881 0 0 1 29.2168 -6.0195)" class="st2 st8 st4">recipe title</text>
			<rect id="Rectangle_3_" x="11.4" y="-116.7" class="st7" width="85.9" height="87"/>
		</g>
		<g id="Group-Copy-9" transform="translate(167.000000, 487.000000)">
			<text transform="matrix(0.9881 0 0 1 13.5391 -17.5596)" class="st2 st8 st6">stars</text>
			<text transform="matrix(0.9881 0 0 1 -33.5679 -6.0195)" class="st2 st8 st4">recipe title</text>
			<rect id="Rectangle_2_" x="-51.6" y="-116.7" class="st7" width="85.9" height="87"/>
		</g>
	</g>
</g>
<g>
	<g>
		
			<image style="overflow:visible;opacity:0.73;enable-background:new    ;" width="191" height="572" xlink:href="B4833B72991158DF.png"  transform="matrix(1.1544 0 0 1.1544 288.0934 64.5035)">
		</image>
		<g>
			<rect x="297.4" y="75" class="st0" width="196.1" height="637.1"/>
			<rect x="297.4" y="75" class="st14" width="196.1" height="637.1"/>
		</g>
	</g>
	<g id="My-account">
		<ellipse id="Mask" class="st15" cx="395.1" cy="132.7" rx="23.1" ry="23.4"/>
		<ellipse id="Mask-Copy" class="st15" cx="395.7" cy="230.1" rx="11.6" ry="11.7"/>
		<text transform="matrix(0.9885 0 0 1 381.3171 186.3013)" class="st2 st16 st17">Country</text>
		<text transform="matrix(0.9885 0 0 1 383.2341 176.4429)" class="st2 st16 st18">Name</text>
		<g id="H1" transform="translate(20.000000, 653.000000)">
			<text transform="matrix(0.9885 0 0 1 307.5608 -151.8398)" class="st2 st3 st19">SAVED COOKING CLASSES</text>
		</g>
		<g id="H1_9_" transform="translate(20.000000, 400.000000)">
			<text transform="matrix(0.9885 0 0 1 336.4246 -54.728)" class="st2 st3 st19">SAVED RECIPES</text>
		</g>
		<g id="H1_8_" transform="translate(21.000000, 773.000000)">
			<text transform="matrix(0.9885 0 0 1 324.3201 -197.8994)" class="st2 st3 st19">PUBLISHED RECIPES</text>
		</g>
		<text transform="matrix(0.9885 0 0 1 380.4734 146.2485)" class="st0 st5 st20">+</text>
		<text transform="matrix(0.9885 0 0 1 390.8269 234.3604)" class="st0 st5 st21">+</text>
		<text transform="matrix(0.9885 0 0 1 310.1555 124.6846)" class="st2 st22 st17" style="text-decoration: underline;">Sign out</text>
		<text transform="matrix(0.9885 0 0 1 309.1794 87.0981)" class="st0 st10 st17">Classes</text>
		<text transform="matrix(0.9885 0 0 1 380.6672 87.0981)" class="st0 st10 st17">Recipes</text>
		<text transform="matrix(0.9885 0 0 1 440.6541 87.0981)" class="st0 st10 st17">My account</text>
		<g id="H1_7_" transform="translate(16.000000, 307.000000)">
			<text transform="matrix(0.9885 0 0 1 335.0608 -19.0322)" class="st2 st3 st19">UPCOMING CLASSES</text>
		</g>
		<rect id="Rectangle-Copy-5" x="303.2" y="268.8" class="st12" width="183.4" height="42.9"/>
		<rect id="Rectangle-Copy-6" x="303.2" y="509" class="st12" width="183.4" height="42.9"/>
		<g id="H1_6_" transform="translate(22.000000, 182.000000)">
			<text transform="matrix(0.9885 0 0 1 349.1692 28.9468)" class="st2 st3 st19">MY STORY</text>
		</g>
		<g id="H1_5_" transform="translate(0.000000, 267.000000)">
			<text transform="matrix(0.9885 0 0 1 341.3152 -3.6792)" class="st2 st3 st19">UPCOMING CLASSES</text>
		</g>
		<rect id="Rectangle-Copy-5_1_" x="298.6" y="75" class="st12" width="195" height="22"/>
		<g id="Group-Copy">
			<rect id="Rectangle-Copy-7" x="297.4" y="76.2" class="st12" width="195" height="22"/>
			<text transform="matrix(0.9885 0 0 1 308.8733 87.7144)" class="st0 st10 st17">Classes</text>
			<text transform="matrix(0.9885 0 0 1 378.2307 87.7144)" class="st0 st10 st17">Recipes</text>
			<text transform="matrix(0.9885 0 0 1 437.9133 87.7144)" class="st23 st10 st17">My account</text>
		</g>
		<g id="Group-Copy-10" transform="translate(11.000000, 450.000000)">
			<text transform="matrix(0.9885 0 0 1 359.7288 3.7148)" class="st2 st8 st18">stars</text>
			<text transform="matrix(0.9885 0 0 1 311.9182 15.4229)" class="st2 st8 st19">recipe title</text>
			<rect id="Rectangle" x="292.8" y="-95.9" class="st24" width="88.2" height="88.2"/>
		</g>
		<g id="Group-Copy-11" transform="translate(168.000000, 450.000000)">
			<text transform="matrix(0.9885 0 0 1 298.3513 3.7148)" class="st2 st8 st18">stars</text>
			<text transform="matrix(0.9885 0 0 1 250.5403 15.4229)" class="st2 st8 st19">recipe title</text>
			<rect id="Rectangle_6_" x="232.1" y="-95.9" class="st24" width="88.2" height="88.2"/>
		</g>
		<g id="Group-Copy-10_1_" transform="translate(9.000000, 822.000000)">
			<text transform="matrix(0.9885 0 0 1 360.511 -139.0693)" class="st2 st8 st18">stars</text>
			<text transform="matrix(0.9885 0 0 1 312.7004 -127.3613)" class="st2 st8 st19">recipe title</text>
			<rect id="Rectangle_5_" x="293.6" y="-239.3" class="st24" width="88.2" height="88.2"/>
		</g>
		<g id="Group-Copy-11_1_" transform="translate(168.000000, 822.000000)">
			<text transform="matrix(0.9885 0 0 1 298.3513 -139.0693)" class="st2 st8 st18">stars</text>
			<text transform="matrix(0.9885 0 0 1 250.5403 -127.3613)" class="st2 st8 st19">recipe title</text>
			<rect id="Rectangle_1_" x="232.1" y="-239.3" class="st24" width="88.2" height="88.2"/>
		</g>
	</g>
</g>
<g>
	<g>
		<g>
			
				<image style="overflow:visible;opacity:0.73;enable-background:new    ;" width="188" height="367" xlink:href="B4833B72991158DA.png"  transform="matrix(1.1543 0 0 1.1543 573.554 15.2009)">
			</image>
			<g>
				<rect x="581.9" y="23.2" class="st0" width="196.2" height="404.9"/>
				<rect x="581.9" y="23.2" class="st25" width="196.2" height="404.9"/>
			</g>
		</g>
		<g id="recepes">
			<g id="Group">
				<rect id="Rectangle-Copy-7_1_" x="581.2" y="22.8" class="st12" width="196.8" height="22.4"/>
				<text transform="matrix(0.9881 0 0 1 592.5399 34.6055)" class="st0 st10 st26">Classes</text>
				<text transform="matrix(0.9881 0 0 1 662.5746 34.6055)" class="st23 st10 st26">Recipes</text>
				<text transform="matrix(0.9881 0 0 1 722.8387 34.6055)" class="st0 st10 st26">My account</text>
			</g>
			<rect id="Rectangle-Copy-5_2_" x="587.3" y="52" class="st27" width="185.1" height="27.4"/>
			<text transform="matrix(0.9881 0 0 1 643.476 98.0908)" class="st9 st22 st26">Popular Categories</text>
			<path id="Rectangle_9_" class="st28" d="M593.5,109.9h31.4c2.7,0,4.9,2.2,4.9,5v31.7c0,2.8-2.2,5-4.9,5h-31.4
				c-2.7,0-4.9-2.2-4.9-5v-31.7C588.6,112.1,590.8,109.9,593.5,109.9z"/>
			<path id="Rectangle-Copy-3_1_" class="st28" d="M593.5,176.5h31.4c2.7,0,4.9,2.2,4.9,5v31.7c0,2.8-2.2,5-4.9,5h-31.4
				c-2.7,0-4.9-2.2-4.9-5v-31.7C588.6,178.7,590.8,176.5,593.5,176.5z"/>
			<path id="Rectangle-Copy_5_" class="st28" d="M664.8,109.9h31.4c2.7,0,4.9,2.2,4.9,5v31.7c0,2.8-2.2,5-4.9,5h-31.4
				c-2.7,0-4.9-2.2-4.9-5v-31.7C659.9,112.1,662.1,109.9,664.8,109.9z"/>
			<path id="Rectangle-Copy-4_1_" class="st28" d="M664.8,176.5h31.4c2.7,0,4.9,2.2,4.9,5v31.7c0,2.8-2.2,5-4.9,5h-31.4
				c-2.7,0-4.9-2.2-4.9-5v-31.7C659.9,178.7,662.1,176.5,664.8,176.5z"/>
			<path id="Rectangle-Copy-2_1_" class="st28" d="M736.2,109.9h31.4c2.7,0,4.9,2.2,4.9,5v31.7c0,2.8-2.2,5-4.9,5h-31.4
				c-2.7,0-4.9-2.2-4.9-5v-31.7C731.3,112.1,733.5,109.9,736.2,109.9z"/>
			<path id="Rectangle-Copy-10" class="st28" d="M736.2,176.5h31.4c2.7,0,4.9,2.2,4.9,5v31.7c0,2.8-2.2,5-4.9,5h-31.4
				c-2.7,0-4.9-2.2-4.9-5v-31.7C731.3,178.7,733.5,176.5,736.2,176.5z"/>
			<g id="sort-by-1" transform="translate(9.000000, 350.000000)">
				<g id="Group-4-Copy">
					<text transform="matrix(0.9881 0 0 1 581.4252 -98.7979)" class="st2 st22 st26">Origin</text>
					<rect id="Rectangle-Copy_1_" x="578" y="-109.1" class="st29" width="88.6" height="14.3"/>
					<polyline id="Path-6-Copy" class="st30" points="655.2,-103.2 657.7,-100 660.2,-103.2 					"/>
				</g>
				<g id="Group-5-Copy" transform="translate(155.000000, 0.000000)">
					<text transform="matrix(0.9881 0 0 1 521.7753 -98.7979)" class="st2 st22 st26">Diet</text>
					<rect id="Rectangle-Copy_2_" x="518.4" y="-109.1" class="st29" width="88.6" height="14.3"/>
					<polyline id="Path-6-Copy_1_" class="st30" points="594.6,-103.2 597.2,-100 599.8,-103.2 					"/>
				</g>
				<g id="Group-3-Copy" transform="translate(0.000000, 33.000000)">
					<text transform="matrix(0.9881 0 0 1 582.0394 -111.2603)" class="st2 st22 st26">Meal Type</text>
					<rect id="Rectangle-Copy_3_" x="578" y="-121.5" class="st29" width="88.6" height="14.3"/>
					<polyline id="Path-6-Copy_2_" class="st30" points="655.2,-115.6 657.7,-112.5 660.2,-115.6 					"/>
				</g>
				<g id="Group-6-Copy" transform="translate(155.000000, 33.000000)">
					<text transform="matrix(0.9881 0 0 1 522.5184 -111.2603)" class="st2 st22 st26">Easiness</text>
					<rect id="Rectangle-Copy_4_" x="518.4" y="-121.5" class="st29" width="88.6" height="14.3"/>
					<polyline id="Path-6-Copy_3_" class="st30" points="594.6,-115.6 597.2,-112.5 599.8,-115.6 					"/>
				</g>
			</g>
			<g id="Group-Copy-8_1_" transform="translate(9.000000, 437.000000)">
				<text transform="matrix(0.9881 0 0 1 644.7689 -40.7783)" class="st2 st8 st31">stars</text>
				<text transform="matrix(0.9881 0 0 1 596.4921 -28.9512)" class="st2 st8 st32">recipe title</text>
				<rect id="Rectangle_8_" x="577.7" y="-142.2" class="st28" width="88.6" height="89.6"/>
			</g>
			<g id="Group-Copy-9_1_" transform="translate(168.000000, 437.000000)">
				<text transform="matrix(0.9881 0 0 1 583.5546 -40.7783)" class="st2 st8 st31">stars</text>
				<text transform="matrix(0.9881 0 0 1 535.2762 -28.9512)" class="st2 st8 st32">recipe title</text>
				<rect id="Rectangle_7_" x="516.5" y="-142.2" class="st28" width="88.6" height="89.6"/>
			</g>
		</g>
	</g>
	<g>
		<g>
			
				<image style="overflow:visible;opacity:0.73;enable-background:new    ;" width="188" height="350" xlink:href="B4833B72991158DB.png"  transform="matrix(1.1543 0 0 1.1543 573.7823 460.9966)">
			</image>
			<g>
				<rect x="581.9" y="469.6" class="st0" width="196.2" height="385.2"/>
				<rect x="581.9" y="469.6" class="st33" width="196.2" height="385.2"/>
			</g>
		</g>
		<g id="classes">
			<path id="Path-2" class="st34" d="M581.2,468.9"/>
			<g id="H1_10_" transform="translate(12.000000, 70.000000)">
				<text transform="matrix(0.9881 0 0 1 613.3217 454.3525)" class="st2 st3 st32">COOKING CLASSES</text>
			</g>
			<g id="sort-by-1_1_" transform="translate(10.000000, 140.000000)">
				<g id="Group-4-Copy_1_">
					<text transform="matrix(0.9881 0 0 1 581.0394 426.627)" class="st2 st22 st26">Origin</text>
					<rect id="Rectangle-Copy_9_" x="577.7" y="416.4" class="st29" width="88.6" height="14.3"/>
					<polyline id="Path-6-Copy_7_" class="st30" points="654.8,422.3 657.3,425.4 659.8,422.3 					"/>
				</g>
				<g id="Group-5-Copy_1_" transform="translate(155.000000, 0.000000)">
					<text transform="matrix(0.9881 0 0 1 521.3905 426.627)" class="st2 st22 st26">Diet</text>
					<rect id="Rectangle-Copy_8_" x="518" y="416.4" class="st29" width="88.6" height="14.3"/>
					<polyline id="Path-6-Copy_6_" class="st30" points="594.2,422.3 596.8,425.4 599.4,422.3 					"/>
				</g>
				<g id="Group-3-Copy_1_" transform="translate(0.000000, 33.000000)">
					<text transform="matrix(0.9881 0 0 1 581.6552 414.166)" class="st2 st22 st26">Meal Type</text>
					<rect id="Rectangle-Copy_7_" x="577.7" y="403.9" class="st29" width="88.6" height="14.3"/>
					<polyline id="Path-6-Copy_5_" class="st30" points="654.8,409.8 657.3,412.9 659.8,409.8 					"/>
				</g>
				<g id="Group-6-Copy_1_" transform="translate(155.000000, 33.000000)">
					<text transform="matrix(0.9881 0 0 1 522.1327 414.166)" class="st2 st22 st26">Easiness</text>
					<rect id="Rectangle-Copy_6_" x="518" y="403.9" class="st29" width="88.6" height="14.3"/>
					<polyline id="Path-6-Copy_4_" class="st30" points="594.2,409.8 596.8,412.9 599.4,409.8 					"/>
				</g>
			</g>
			<g id="Group_1_">
				<rect id="Rectangle-Copy-7_2_" x="581.2" y="468.9" class="st12" width="196.8" height="22.4"/>
				<text transform="matrix(0.9881 0 0 1 592.5399 480.7344)" class="st23 st10 st26">Classes</text>
				<text transform="matrix(0.9881 0 0 1 662.5746 480.7344)" class="st0 st10 st26">Recipes</text>
				<text transform="matrix(0.9881 0 0 1 722.8387 480.7344)" class="st0 st10 st26">My account</text>
			</g>
			<rect id="Rectangle-Copy-5_3_" x="586.7" y="606.5" class="st12" width="185.1" height="42.9"/>
			<rect id="Rectangle-Copy-6_1_" x="586.7" y="670.6" class="st12" width="185.1" height="42.9"/>
			<rect id="Rectangle-Copy-8" x="586.7" y="733.4" class="st12" width="185.1" height="42.9"/>
			<rect id="Rectangle-Copy-9" x="586.7" y="797.5" class="st12" width="185.1" height="42.9"/>
		</g>
	</g>
</g>
<g>
	<g>
		<g>
			
				<image style="overflow:visible;opacity:0.73;enable-background:new    ;" width="187" height="362" xlink:href="B4833B72991158E5.png"  transform="matrix(1.1543 0 0 1.1543 1141.9165 446.946)">
			</image>
			<g>
				<rect x="1150" y="455.2" class="st0" width="196.2" height="399.7"/>
				<rect x="1150" y="455.2" class="st35" width="196.2" height="399.7"/>
			</g>
		</g>
		<g id="cheff_x27_s-info">
			<path id="Path-2_2_" class="st34" d="M1149.2,454.1"/>
			<g id="Group_3_">
				<rect id="Rectangle-Copy-7_4_" x="1149.2" y="454.1" class="st12" width="196.8" height="22.4"/>
				<text transform="matrix(0.9881 0 0 1 1225.4541 467.8281)" class="st23 st10 st26">Chef’s page</text>
				<text transform="matrix(0.9881 0 0 1 1158.1846 465.3369)" class="st23 st10 st26">&lt;</text>
			</g>
			<rect id="Rectangle-Copy-8_1_" x="1149.2" y="583.6" class="st27" width="196.8" height="59.1"/>
			<text transform="matrix(0.9881 0 0 1 1225.0381 615.9609)" class="st2 st5 st32">short story</text>
			<text transform="matrix(0.9881 0 0 1 1220.0459 562.4355)" class="st2 st5 st32">Chef’s name</text>
			<g id="Group-Copy-6_1_" transform="translate(8.000000, 328.000000)">
				<text transform="matrix(0.9881 0 0 1 1213.1689 431.7363)" class="st2 st8 st31">stars</text>
				<text transform="matrix(0.9881 0 0 1 1164.8906 443.5596)" class="st2 st8 st32">recipe title</text>
				<rect id="Rectangle_13_" x="1146.1" y="330.3" class="st28" width="88.6" height="89.6"/>
			</g>
			<g id="Group-Copy-7_1_" transform="translate(167.000000, 328.000000)">
				<text transform="matrix(0.9881 0 0 1 1151.9531 431.7363)" class="st2 st8 st31">stars</text>
				<text transform="matrix(0.9881 0 0 1 1103.6768 443.5596)" class="st2 st8 st32">recipe title</text>
				<rect id="Rectangle_12_" x="1084.9" y="330.3" class="st28" width="88.6" height="89.6"/>
			</g>
			<g id="Group-2-Copy-3_1_" transform="translate(115.000000, 46.000000)">
				<ellipse id="Oval_4_" class="st28" cx="1132.9" cy="465.1" rx="28" ry="28.3"/>
				<text transform="matrix(0.9881 0 0 1 1116.623 529.5039)" class="st2 st8 st31">country</text>
			</g>
			<rect id="Rectangle-Copy-10_1_" x="1155.4" y="800.8" class="st12" width="185.1" height="42.9"/>
			<g id="H1_11_" transform="translate(20.000000, 530.000000)">
				<text transform="matrix(0.9881 0 0 1 1178.2559 265.8848)" class="st2 st3 st32">COOKING CLASSES</text>
			</g>
		</g>
	</g>
	<g>
		<g>
			
				<image style="overflow:visible;opacity:0.73;enable-background:new    ;" width="187" height="362" xlink:href="B4833B72991158E7.png"  transform="matrix(1.1543 0 0 1.1543 1141.9165 15.2518)">
			</image>
			<g>
				<rect x="1150" y="23.2" class="st0" width="196.2" height="399.7"/>
				<rect x="1150" y="23.2" class="st35" width="196.2" height="399.7"/>
			</g>
		</g>
		<g id="country_1_">
			<path id="Path-2_3_" class="st34" d="M1149.2,22.8"/>
			<g id="Group_4_">
				<rect id="Rectangle-Copy-7_5_" x="1149.2" y="22.8" class="st12" width="196.8" height="22.4"/>
				<text transform="matrix(0.9881 0 0 1 1233.6846 36.4731)" class="st23 st10 st26">Country</text>
				<text transform="matrix(0.9881 0 0 1 1158.1846 33.9824)" class="st23 st10 st26">&lt;</text>
			</g>
			<rect id="Rectangle-Copy-5_5_" x="1154.7" y="49.5" class="st27" width="185.1" height="59.1"/>
			<rect id="Rectangle-Copy-6_2_" x="1149.2" y="227.6" class="st27" width="196.8" height="59.1"/>
			<rect id="Rectangle-Copy-8_2_" x="1149.2" y="152.2" class="st27" width="196.8" height="59.1"/>
			<text transform="matrix(0.9881 0 0 1 1225.0381 184.606)" class="st2 st5 st32">short story</text>
			<text transform="matrix(0.9881 0 0 1 1202.3574 131.0776)" class="st2 st5 st32">Name of the country</text>
			<text transform="matrix(0.9881 0 0 1 1234.6992 142.2822)" class="st2 st5 st26">location</text>
			<text transform="matrix(0.9881 0 0 1 1236.5439 78.7969)" class="st2 st5 st32">MAP</text>
			<g id="Group-Copy-6_2_" transform="translate(8.000000, 436.000000)">
				<text transform="matrix(0.9881 0 0 1 1213.1689 -40.4023)" class="st2 st8 st31">stars</text>
				<text transform="matrix(0.9881 0 0 1 1164.8906 -28.5742)" class="st2 st8 st32">recipe title</text>
				<rect id="Rectangle_15_" x="1146.1" y="-141.9" class="st28" width="88.6" height="89.6"/>
			</g>
			<g id="Group-Copy-7_2_" transform="translate(167.000000, 436.000000)">
				<text transform="matrix(0.9881 0 0 1 1151.9531 -40.4023)" class="st2 st8 st31">stars</text>
				<text transform="matrix(0.9881 0 0 1 1103.6768 -28.5742)" class="st2 st8 st32">recipe title</text>
				<rect id="Rectangle_14_" x="1084.9" y="-141.9" class="st28" width="88.6" height="89.6"/>
			</g>
			<g id="Group-2-Copy-3_2_" transform="translate(9.000000, 336.000000)">
				<ellipse id="Oval_7_" class="st28" cx="1164.8" cy="-84.8" rx="19.1" ry="19.3"/>
				<text transform="matrix(0.9881 0 0 1 1153.1279 -53.0547)" class="st2 st8 st31">name</text>
			</g>
			<g id="Group-2-Copy-4" transform="translate(129.000000, 336.000000)">
				<ellipse id="Oval_6_" class="st28" cx="1118.6" cy="-84.8" rx="19.1" ry="19.3"/>
				<text transform="matrix(0.9881 0 0 1 1106.9297 -53.0547)" class="st2 st8 st31">name</text>
			</g>
			<g id="Group-2-Copy-5" transform="translate(249.000000, 336.000000)">
				<ellipse id="Oval_5_" class="st28" cx="1072.4" cy="-84.8" rx="19.1" ry="19.3"/>
				<text transform="matrix(0.9881 0 0 1 1059.1904 -53.0547)" class="st2 st8 st31">name</text>
			</g>
		</g>
	</g>
</g>
<g>
	<g>
		<g>
			
				<image style="overflow:visible;opacity:0.73;enable-background:new    ;" width="187" height="350" xlink:href="B4833B72991158EA.png"  transform="matrix(1.1543 0 0 1.1543 857.6702 461.0024)">
			</image>
			<g>
				<rect x="865.7" y="469.6" class="st0" width="196.2" height="385.2"/>
				<rect x="865.7" y="469.6" class="st33" width="196.2" height="385.2"/>
			</g>
		</g>
		<g id="class-detailes">
			<path id="Path-2_1_" class="st34" d="M864.9,469"/>
			<g id="Group_2_">
				<rect id="Rectangle-Copy-7_3_" x="864.9" y="469" class="st12" width="196.8" height="22.4"/>
				<text transform="matrix(0.9881 0 0 1 937.0414 482.6514)" class="st23 st10 st26">Cooking class</text>
				<text transform="matrix(0.9881 0 0 1 873.9135 480.1621)" class="st23 st10 st26">&lt;</text>
			</g>
			<rect id="Rectangle-Copy-5_4_" x="871.1" y="594.1" class="st27" width="185.1" height="42.9"/>
			<text transform="matrix(0.9881 0 0 1 877.9946 512.5283)" class="st2 st5 st32">Day and time</text>
			<text transform="matrix(0.9881 0 0 1 952.9155 652.5674)" class="st2 st5 st32">Menu</text>
			<text transform="matrix(0.9881 0 0 1 877.9838 537.4238)" class="st2 st5 st32">Name of the class</text>
			<text transform="matrix(0.9881 0 0 1 877.8578 584.7266)" class="st2 st5 st32">Address</text>
			<text transform="matrix(0.9881 0 0 1 952.2729 618.96)" class="st2 st5 st32">MAP</text>
			<g id="Group-2-Copy-3" transform="translate(232.000000, 65.000000)">
				<ellipse id="Oval" class="st28" cx="797.8" cy="463.7" rx="19.1" ry="19.3"/>
				<text transform="matrix(0.9881 0 0 1 775.6235 495.4541)" class="st2 st8 st31">chef name</text>
			</g>
			<g id="Group-Copy-6" transform="translate(10.000000, 310.000000)">
				<text transform="matrix(0.9881 0 0 1 928.1284 453.3564)" class="st2 st8 st31">stars</text>
				<text transform="matrix(0.9881 0 0 1 879.851 465.1816)" class="st2 st8 st32">recipe title</text>
				<rect id="Rectangle_11_" x="861.1" y="351.9" class="st28" width="88.6" height="89.6"/>
			</g>
			<g id="Group-Copy-7" transform="translate(167.000000, 310.000000)">
				<text transform="matrix(0.9881 0 0 1 867.683 453.3564)" class="st2 st8 st31">stars</text>
				<text transform="matrix(0.9881 0 0 1 819.4057 465.1816)" class="st2 st8 st32">recipe title</text>
				<rect id="Rectangle_10_" x="800.6" y="351.9" class="st28" width="88.6" height="89.6"/>
			</g>
		</g>
	</g>
	<g>
		<g>
			
				<image style="overflow:visible;opacity:0.73;enable-background:new    ;" width="188" height="363" xlink:href="B4833B72991158EB.png"  transform="matrix(1.1543 0 0 1.1543 857.5021 12.928)">
			</image>
			<g>
				<rect x="865.7" y="21.6" class="st0" width="196.2" height="399.7"/>
				<rect x="865.7" y="21.6" class="st35" width="196.2" height="399.7"/>
			</g>
		</g>
		<g id="recipe">
			<path id="Path-2_4_" class="st34" d="M864.9,22.6"/>
			<g id="Group_5_">
				<rect id="Rectangle-Copy-7_6_" x="864.9" y="22.6" class="st12" width="196.8" height="22.4"/>
				<text transform="matrix(0.9881 0 0 1 952.4213 36.3252)" class="st23 st10 st26">Recipe</text>
				<text transform="matrix(0.9881 0 0 1 873.9135 33.835)" class="st23 st10 st26">&lt;</text>
			</g>
			<rect id="Rectangle-Copy-5_6_" x="869.3" y="51.9" class="st27" width="185.1" height="42.9"/>
			<text transform="matrix(0.9881 0 0 1 872.3227 186.3228)" class="st2 st5 st32">Ingredient list</text>
			<text transform="matrix(0.9881 0 0 1 872.9389 277.8179)" class="st2 st5 st32">Preparation:</text>
			<text transform="matrix(0.9881 0 0 1 869.2485 108.5225)" class="st2 st5 st36">save to favorites</text>
			<text transform="matrix(0.9881 0 0 1 869.2485 117.8589)" class="st2 st5 st36">rating</text>
			<text transform="matrix(0.9881 0 0 1 939.9731 76.1587)" class="st2 st5 st32">food image</text>
			<text transform="matrix(0.9881 0 0 1 869.3871 155.8257)" class="st2 st5 st32">Name of the recipe</text>
			<rect id="Rectangle-Copy-8_3_" x="871.1" y="193.8" class="st12" width="185.1" height="66.6"/>
			<rect id="Rectangle-Copy-9_1_" x="871.1" y="285.3" class="st12" width="185.1" height="66.6"/>
		</g>
	</g>
</g>
</svg>
