<svg id="Layer_1" data-name="Layer 1" xmlns="http://www.w3.org/2000/svg" viewBox="0 0 1197.5 305"><defs><style>.cls-1{font-size:24px;}.cls-1,.cls-7{fill:#662d91;font-family:AvanosSans-Regular, Avanos Sans;}.cls-2{letter-spacing:-0.02em;}.cls-3{letter-spacing:-0.01em;}.cls-4{letter-spacing:-0.02em;}.cls-5{letter-spacing:0em;}.cls-6{letter-spacing:0.02em;}.cls-7{font-size:18px;}.cls-8{letter-spacing:0em;}.cls-9{letter-spacing:-0.02em;}.cls-10{letter-spacing:0em;}.cls-11{letter-spacing:-0.01em;}.cls-12{letter-spacing:-0.02em;}.cls-13{letter-spacing:-0.01em;}.cls-14{letter-spacing:-0.02em;}.cls-15{letter-spacing:0em;}.cls-16{letter-spacing:0em;}.cls-17{letter-spacing:-0.01em;}.cls-18{letter-spacing:-0.01em;}.cls-19{letter-spacing:0em;}.cls-20{letter-spacing:0em;}.cls-21{letter-spacing:-0.02em;}.cls-22{letter-spacing:-0.01em;}.cls-23{letter-spacing:-0.02em;}.cls-24{letter-spacing:-0.02em;}.cls-25{letter-spacing:-0.01em;}.cls-26{letter-spacing:-0.01em;}.cls-27{letter-spacing:-0.01em;}.cls-28{letter-spacing:0em;}.cls-29{letter-spacing:-0.01em;}.cls-30{letter-spacing:-0.01em;}.cls-31{letter-spacing:0em;}.cls-32{letter-spacing:-0.01em;}.cls-33{letter-spacing:-0.02em;}.cls-34{letter-spacing:0.02em;}.cls-35{letter-spacing:-0.01em;}.cls-36{letter-spacing:0em;}.cls-37{letter-spacing:-0.01em;}.cls-38{letter-spacing:-0.01em;}.cls-39{letter-spacing:-0.02em;}.cls-40{letter-spacing:0em;}.cls-41{letter-spacing:-0.01em;}.cls-42{letter-spacing:-0.02em;}.cls-43{letter-spacing:-0.02em;}.cls-44{letter-spacing:0.01em;}.cls-45{letter-spacing:0.01em;}.cls-46{letter-spacing:0em;}.cls-47{letter-spacing:0em;}.cls-48,.cls-49,.cls-50,.cls-51{fill:none;}.cls-48,.cls-49,.cls-50{stroke:#000;stroke-miterlimit:10;}.cls-48{stroke-width:0.92px;}.cls-49{stroke-width:0.99px;}.cls-50{stroke-width:1.02px;}</style></defs><path d="M592,26V252H342V26H592m1-1H341V253H593V25Z" transform="translate(2.5 2.5)"/><text class="cls-1" transform="translate(376.37 71.89)">Sea<tspan class="cls-2" x="37.2" y="0">r</tspan><tspan class="cls-3" x="43.7" y="0">c</tspan><tspan x="54.48" y="0">h </tspan><tspan class="cls-4" x="72.7" y="0">r</tspan><tspan class="cls-5" x="79.25" y="0">e</tspan><tspan x="91.03" y="0">sult pag</tspan><tspan class="cls-6" x="168.36" y="0">e</tspan><tspan x="180.81" y="0">:</tspan></text><text class="cls-7" transform="translate(405.25 147.56)">Li<tspan class="cls-8" x="11.25" y="0">s</tspan><tspan x="17.91" y="0">t of </tspan><tspan class="cls-9" x="45.31" y="0">r</tspan><tspan class="cls-10" x="50.22" y="0">e</tspan><tspan class="cls-8" x="59.06" y="0">s</tspan><tspan class="cls-11" x="65.72" y="0">t</tspan><tspan x="69.91" y="0">au</tspan><tspan class="cls-12" x="88.96" y="0">r</tspan><tspan x="93.85" y="0">ants </tspan></text><text class="cls-7" transform="translate(379.17 162.56)">ea<tspan class="cls-13" x="18.81" y="0">c</tspan><tspan x="26.89" y="0">h </tspan><tspan class="cls-14" x="40.55" y="0">c</tspan><tspan x="48.49" y="0">a</tspan><tspan class="cls-12" x="58.37" y="0">r</tspan><tspan x="63.27" y="0">d on </tspan><tspan class="cls-15" x="100.78" y="0">t</tspan><tspan class="cls-16" x="105.19" y="0">he li</tspan><tspan class="cls-15" x="134.94" y="0">s</tspan><tspan x="141.6" y="0">t h</tspan><tspan class="cls-10" x="159.69" y="0">a</tspan><tspan x="169.49" y="0">s </tspan><tspan x="-12.89" y="17">nam</tspan><tspan class="cls-14" x="20.3" y="17">e</tspan><tspan x="28.94" y="17">, </tspan><tspan class="cls-15" x="37.53" y="17">s</tspan><tspan class="cls-17" x="44.19" y="17">t</tspan><tspan x="48.38" y="17">a</tspan><tspan class="cls-18" x="58.27" y="17">r</tspan><tspan class="cls-19" x="63.43" y="17">s</tspan><tspan class="cls-20" x="70.04" y="17">, di</tspan><tspan class="cls-8" x="92.09" y="17">s</tspan><tspan class="cls-11" x="98.75" y="17">t</tspan><tspan x="102.94" y="17">an</tspan><tspan class="cls-21" x="121.98" y="17">c</tspan><tspan class="cls-14" x="129.9" y="17">e</tspan><tspan class="cls-20" x="138.54" y="17">, image</tspan></text><text class="cls-7" transform="translate(375.28 216.56)">H<tspan class="cls-22" x="11.7" y="0">o</tspan><tspan x="20.95" y="0">w </tspan><tspan class="cls-17" x="37.48" y="0">t</tspan><tspan x="41.67" y="0">o sc</tspan><tspan class="cls-12" x="70.54" y="0">r</tspan><tspan x="75.44" y="0">oll </tspan><tspan class="cls-23" x="96.57" y="0">f</tspan><tspan x="100.8" y="0">or mo</tspan><tspan class="cls-9" x="143.66" y="0">r</tspan><tspan x="148.57" y="0">e in</tspan><tspan class="cls-23" x="174.74" y="0">f</tspan><tspan x="178.97" y="0">o</tspan></text><text class="cls-7" transform="translate(400.97 107.56)">Sea<tspan class="cls-24" x="27.9" y="0">r</tspan><tspan class="cls-25" x="32.78" y="0">c</tspan><tspan class="cls-16" x="40.86" y="0">h pa</tspan><tspan class="cls-12" x="74.29" y="0">r</tspan><tspan x="79.18" y="0">am</tspan><tspan class="cls-18" x="103.21" y="0">e</tspan><tspan class="cls-26" x="112.03" y="0">t</tspan><tspan x="116.28" y="0">e</tspan><tspan class="cls-18" x="125.21" y="0">r</tspan><tspan x="130.37" y="0">s</tspan></text><path d="M286,26V252H36V26H286m1-1H35V253H287V25Z" transform="translate(2.5 2.5)"/><text class="cls-1" transform="translate(92.46 71.89)"><tspan class="cls-27">L</tspan><tspan class="cls-28" x="10.03" y="0">andi</tspan><tspan class="cls-29" x="53.38" y="0">n</tspan><tspan x="65.47" y="0">g pag</tspan><tspan class="cls-6" x="124.17" y="0">e</tspan><tspan x="136.63" y="0">:</tspan></text><text class="cls-7" transform="translate(110 110.56)">Sea<tspan class="cls-24" x="27.9" y="0">r</tspan><tspan class="cls-25" x="32.78" y="0">c</tspan><tspan class="cls-16" x="40.86" y="0">h o</tspan><tspan class="cls-30" x="63.99" y="0">p</tspan><tspan class="cls-19" x="73.75" y="0">t</tspan><tspan class="cls-20" x="78.1" y="0">ions</tspan></text><text class="cls-7" transform="translate(71.66 147.56)"><tspan class="cls-31">A</tspan><tspan x="11.11" y="0">d</tspan><tspan class="cls-32" x="20.99" y="0">v</tspan><tspan x="28.84" y="0">an</tspan><tspan class="cls-21" x="47.88" y="0">c</tspan><tspan x="55.8" y="0">ed sea</tspan><tspan class="cls-33" x="104.6" y="0">r</tspan><tspan class="cls-13" x="109.47" y="0">c</tspan><tspan x="117.56" y="0">h o</tspan><tspan class="cls-30" x="140.69" y="0">p</tspan><tspan class="cls-19" x="150.44" y="0">t</tspan><tspan x="154.8" y="0">ions</tspan></text><text class="cls-7" transform="translate(61.96 183.56)">Sea<tspan class="cls-24" x="27.9" y="0">r</tspan><tspan class="cls-25" x="32.78" y="0">c</tspan><tspan class="cls-16" x="40.86" y="0">h p</tspan><tspan class="cls-9" x="64.4" y="0">r</tspan><tspan class="cls-10" x="69.32" y="0">e</tspan><tspan x="78.16" y="0">s</tspan><tspan class="cls-18" x="84.83" y="0">e</tspan><tspan x="93.65" y="0">ts or </tspan><tspan class="cls-14" x="128.5" y="0">c</tspan><tspan x="136.44" y="0">a</tspan><tspan class="cls-26" x="146.32" y="0">t</tspan><tspan x="150.57" y="0">ego</tspan><tspan class="cls-13" x="178.85" y="0">r</tspan><tspan class="cls-20" x="183.98" y="0">i</tspan><tspan class="cls-10" x="187.56" y="0">e</tspan><tspan x="196.4" y="0">s</tspan></text><text class="cls-7" transform="translate(1045.48 83.12)">Image galle<tspan class="cls-34" x="87.42" y="0">r</tspan><tspan x="93.09" y="0">y</tspan></text><path d="M1184.71,155.29v95.42H1012.29V155.29h172.42M1186,154H1011v98h175V154Z" transform="translate(2.5 2.5)"/><path d="M1184.71,27.29v95.42H1012.29V27.29h172.42M1186,26H1011v98h175V26Z" transform="translate(2.5 2.5)"/><text class="cls-7" transform="translate(1071.22 209.12)"><tspan class="cls-35">C</tspan><tspan x="11.74" y="0">oupons</tspan></text><path d="M955,26V252H648V26H955m1-1H647V253H956V25Z" transform="translate(2.5 2.5)"/><text class="cls-1" transform="translate(679.74 71.89)"><tspan class="cls-36">D</tspan><tspan class="cls-37" x="14.9" y="0">e</tspan><tspan class="cls-38" x="26.66" y="0">t</tspan><tspan class="cls-28" x="32.26" y="0">ailed </tspan><tspan class="cls-39" x="86.06" y="0">r</tspan><tspan class="cls-29" x="92.61" y="0">e</tspan><tspan class="cls-40" x="104.4" y="0">s</tspan><tspan class="cls-41" x="113.28" y="0">t</tspan><tspan x="118.87" y="0">a</tspan><tspan class="cls-42" x="132.05" y="0">r</tspan><tspan x="138.57" y="0">aunt pag</tspan><tspan class="cls-6" x="227.61" y="0">e</tspan><tspan x="240.07" y="0">:</tspan></text><text class="cls-7" transform="translate(701.1 110.56)">Cu<tspan class="cls-15" x="21.08" y="0">s</tspan><tspan class="cls-17" x="27.74" y="0">t</tspan><tspan x="31.93" y="0">om/pla</tspan><tspan class="cls-43" x="88.76" y="0">c</tspan><tspan class="cls-8" x="96.68" y="0">e</tspan><tspan x="105.59" y="0">holder image</tspan></text><text class="cls-7" transform="translate(708.59 146.75)"><tspan class="cls-26">C</tspan><tspan x="11.74" y="0">all and Di</tspan><tspan class="cls-9" x="81.43" y="0">r</tspan><tspan x="86.34" y="0">e</tspan><tspan class="cls-44" x="95.27" y="0">c</tspan><tspan class="cls-19" x="103.64" y="0">t</tspan><tspan x="108" y="0">ion bu</tspan><tspan class="cls-45" x="153.75" y="0">t</tspan><tspan class="cls-17" x="158.32" y="0">t</tspan><tspan x="162.52" y="0">ons</tspan></text><text class="cls-7" transform="translate(785.33 217.06)">Map</text><text class="cls-7" transform="translate(732.53 179.06)"><tspan class="cls-46">N</tspan><tspan class="cls-22" x="12.83" y="0">e</tspan><tspan class="cls-18" x="21.55" y="0">w</tspan><tspan x="33.46" y="0">s and </tspan><tspan class="cls-47" x="78.06" y="0">s</tspan><tspan x="84.69" y="0">pecials </tspan></text><line class="cls-48" x1="290" y1="137.73" x2="344" y2="137.73"/><polygon points="343 137.73 332.5 132.82 332.5 142.63 343 137.73"/><line class="cls-48" x1="596" y1="137.73" x2="650" y2="137.73"/><polygon points="649 137.73 638.5 132.82 638.5 142.63 649 137.73"/><line class="cls-49" x1="959.5" y1="107.5" x2="1013.5" y2="79.5"/><polygon points="1012.5 80.02 999 81.32 1005 89.61 1012.5 80.02"/><line class="cls-50" x1="958.5" y1="178.5" x2="1011.5" y2="208.5"/><polygon points="1010.52 207.94 997.27 206.55 1003.16 197.67 1010.52 207.94"/><rect class="cls-51" width="1197.5" height="305"/></svg>