<?xml version="1.0" encoding="UTF-8"?>
<svg width="1366px" height="787px" viewBox="0 0 1366 787" version="1.1" xmlns="http://www.w3.org/2000/svg" xmlns:xlink="http://www.w3.org/1999/xlink">
    <!-- Generator: Sketch 57.1 (83088) - https://sketch.com -->
    <title>ref_flow</title>
    <desc>Created with Sketch.</desc>
    <defs>
        <filter x="0.0%" y="0.0%" width="100.0%" height="132.6%" filterUnits="objectBoundingBox" id="filter-1">
            <feGaussianBlur stdDeviation="0" in="SourceGraphic"></feGaussianBlur>
        </filter>
        <filter x="0.0%" y="0.0%" width="100.0%" height="132.6%" filterUnits="objectBoundingBox" id="filter-2">
            <feGaussianBlur stdDeviation="0" in="SourceGraphic"></feGaussianBlur>
        </filter>
        <filter x="0.0%" y="0.0%" width="100.0%" height="121.6%" filterUnits="objectBoundingBox" id="filter-3">
            <feGaussianBlur stdDeviation="0" in="SourceGraphic"></feGaussianBlur>
        </filter>
        <filter x="0.0%" y="0.0%" width="100.0%" height="121.6%" filterUnits="objectBoundingBox" id="filter-4">
            <feGaussianBlur stdDeviation="0" in="SourceGraphic"></feGaussianBlur>
        </filter>
        <filter x="0.0%" y="0.0%" width="100.0%" height="126.8%" filterUnits="objectBoundingBox" id="filter-5">
            <feGaussianBlur stdDeviation="0" in="SourceGraphic"></feGaussianBlur>
        </filter>
        <filter x="0.0%" y="0.0%" width="100.0%" height="126.8%" filterUnits="objectBoundingBox" id="filter-6">
            <feGaussianBlur stdDeviation="0" in="SourceGraphic"></feGaussianBlur>
        </filter>
        <filter x="0.0%" y="0.0%" width="100.0%" height="136.5%" filterUnits="objectBoundingBox" id="filter-7">
            <feGaussianBlur stdDeviation="0" in="SourceGraphic"></feGaussianBlur>
        </filter>
        <filter x="0.0%" y="0.0%" width="100.0%" height="136.5%" filterUnits="objectBoundingBox" id="filter-8">
            <feGaussianBlur stdDeviation="0" in="SourceGraphic"></feGaussianBlur>
        </filter>
        <filter x="0.0%" y="0.0%" width="100.0%" height="145.7%" filterUnits="objectBoundingBox" id="filter-9">
            <feGaussianBlur stdDeviation="0" in="SourceGraphic"></feGaussianBlur>
        </filter>
        <filter x="0.0%" y="0.0%" width="100.0%" height="145.7%" filterUnits="objectBoundingBox" id="filter-10">
            <feGaussianBlur stdDeviation="0" in="SourceGraphic"></feGaussianBlur>
        </filter>
        <filter x="0.0%" y="0.0%" width="100.0%" height="136.0%" filterUnits="objectBoundingBox" id="filter-11">
            <feGaussianBlur stdDeviation="0" in="SourceGraphic"></feGaussianBlur>
        </filter>
        <filter x="0.0%" y="0.0%" width="100.0%" height="136.0%" filterUnits="objectBoundingBox" id="filter-12">
            <feGaussianBlur stdDeviation="0" in="SourceGraphic"></feGaussianBlur>
        </filter>
        <filter x="0.0%" y="0.0%" width="100.0%" height="100.0%" filterUnits="objectBoundingBox" id="filter-13">
            <feGaussianBlur stdDeviation="0" in="SourceGraphic"></feGaussianBlur>
        </filter>
        <filter x="0.0%" y="0.0%" width="100.0%" height="100.0%" filterUnits="objectBoundingBox" id="filter-14">
            <feGaussianBlur stdDeviation="0" in="SourceGraphic"></feGaussianBlur>
        </filter>
        <filter x="0.0%" y="0.0%" width="100.0%" height="119.6%" filterUnits="objectBoundingBox" id="filter-15">
            <feGaussianBlur stdDeviation="0" in="SourceGraphic"></feGaussianBlur>
        </filter>
        <filter x="0.0%" y="0.0%" width="100.0%" height="119.6%" filterUnits="objectBoundingBox" id="filter-16">
            <feGaussianBlur stdDeviation="0" in="SourceGraphic"></feGaussianBlur>
        </filter>
    </defs>
    <g id="Page-1" stroke="none" stroke-width="1" fill="none" fill-rule="evenodd">
        <g id="Group-Copy-4" transform="translate(6.000000, 17.000000)">
            <rect id="Rectangle" stroke="#C7C5C5" fill="#F7F5F5" x="0" y="0" width="224" height="321"></rect>
            <path d="M22.5,61.5 L193.5,61.5" id="Line" stroke="#979797" stroke-linecap="square"></path>
            <text id="Login/landing-page" font-family="AvenirNext-Regular, Avenir Next" font-size="21" font-weight="normal" fill="#673AB7">
                <tspan x="15" y="37">Login/landing page</tspan>
            </text>
            <text id="--Login-(-note-that" filter="url(#filter-2)" font-family="AvenirNext-Regular, Avenir Next" font-size="14" font-weight="normal" fill="#673AB7">
                <tspan x="17" y="97">- Login ( note that it is needed </tspan>
                <tspan x="17" y="116">to save favorites and to sign </tspan>
                <tspan x="17" y="135">up for classes)</tspan>
                <tspan x="17" y="162.6">- we have classes and </tspan>
                <tspan x="17" y="181.6">recepies</tspan>
                <tspan x="17" y="209.2">- coming up classes </tspan>
                <tspan x="17" y="236.8">- recent classes</tspan>
                <tspan x="17" y="264.4">- reciepies</tspan>
                <tspan x="17" y="292">- our cheffes</tspan>
                <tspan x="17" y="319.6"></tspan>
                <tspan x="17" y="347.2"></tspan>
                <tspan x="17" y="374.8"></tspan>
            </text>
        </g>
        <g id="Group-Copy" transform="translate(453.000000, 17.000000)">
            <rect id="Rectangle" stroke="#C7C5C5" fill="#F7F5F5" x="0" y="0" width="224" height="344"></rect>
            <path d="M22.5,70.5 L193.5,70.5" id="Line" stroke="#979797" stroke-linecap="square"></path>
            <text id="Cooking-classes" font-family="AvenirNext-Regular, Avenir Next" font-size="21" font-weight="normal" fill="#673AB7">
                <tspan x="15" y="40">Cooking classes</tspan>
            </text>
            <text id="--filter---list-of-c" filter="url(#filter-4)" font-family="AvenirNext-Regular, Avenir Next" font-size="14" font-weight="normal" fill="#673AB7">
                <tspan x="17" y="114">- filter</tspan>
                <tspan x="17" y="141.6">- list of classes :</tspan>
                <tspan x="17" y="169.2">	- date and time</tspan>
                <tspan x="17" y="196.8">	- location</tspan>
                <tspan x="17" y="224.4">	- origin</tspan>
                <tspan x="17" y="252">	- diet and menu</tspan>
                <tspan x="17" y="279.6">	-  sign up (if logged in)</tspan>
                <tspan x="17" y="307.2">- list of completed classes </tspan>
                <tspan x="17" y="326.2">with reviiews</tspan>
                <tspan x="17" y="353.8"></tspan>
                <tspan x="17" y="381.4"></tspan>
            </text>
        </g>
        <g id="Group-Copy-5" transform="translate(772.000000, 17.000000)">
            <rect id="Rectangle" stroke="#C7C5C5" fill="#F7F5F5" x="0" y="0" width="224" height="252"></rect>
            <path d="M22.5,60.5 L193.5,60.5" id="Line" stroke="#979797" stroke-linecap="square"></path>
            <text id="Class-detailes" font-family="AvenirNext-Regular, Avenir Next" font-size="21" font-weight="normal" fill="#673AB7">
                <tspan x="15" y="37">Class detailes</tspan>
            </text>
            <text id="--date-and-time---to" filter="url(#filter-6)" font-family="AvenirNext-Regular, Avenir Next" font-size="14" font-weight="normal" fill="#673AB7">
                <tspan x="17" y="93">- date and time</tspan>
                <tspan x="17" y="120.6">- topic</tspan>
                <tspan x="17" y="148.2">- creator</tspan>
                <tspan x="17" y="175.8">- location</tspan>
                <tspan x="17" y="203.4">- menu</tspan>
                <tspan x="17" y="231">- country</tspan>
                <tspan x="17" y="258.6"></tspan>
                <tspan x="17" y="286.2"></tspan>
            </text>
        </g>
        <path id="Line-4" d="M874.498955,268.498957 L874.982,499.998 L878.982245,499.990624 L874.501044,508.999999 L869.982265,500.009413 L873.982,500.001 L873.498957,268.501045 L874.498955,268.498957 Z" fill="#979797" fill-rule="nonzero"></path>
        <path id="Line-4-Copy" d="M995.746436,132.837226 L1128.415,422.563 L1132.05257,420.898194 L1131.70817,430.954605 L1123.86968,424.645241 L1127.506,422.979 L994.837226,133.253564 L995.746436,132.837226 Z" fill="#979797" fill-rule="nonzero"></path>
        <path id="Line-4-Copy-4" d="M1131.82362,476.118853 L1129.42886,485.892038 L1126.379,483.303 L996.557532,636.204762 L995.795238,635.557532 L1125.617,482.655 L1122.56821,480.066961 L1131.82362,476.118853 Z" fill="#979797" fill-rule="nonzero"></path>
        <path id="Line-4-Copy-8" d="M1131.66526,206.028102 L1132.9376,216.009643 L1129.162,214.687 L986.556634,621.887162 L985.612838,621.556634 L1128.218,214.356 L1124.44343,213.034893 L1131.66526,206.028102 Z" fill="#979797" fill-rule="nonzero"></path>
        <path id="Line-4-Copy-2" d="M995.825517,103.314759 L1124.447,179.728 L1126.49076,176.289793 L1131.92986,184.755379 L1121.89393,184.02731 L1123.936,180.588 L995.314759,104.174483 L995.825517,103.314759 Z" fill="#979797" fill-rule="nonzero"></path>
        <g id="Group-Copy-8" transform="translate(772.000000, 508.000000)">
            <rect id="Rectangle" stroke="#C7C5C5" fill="#F7F5F5" x="0" y="0" width="224" height="254"></rect>
            <path d="M22.5,65.5 L193.5,65.5" id="Line" stroke="#979797" stroke-linecap="square"></path>
            <text id="Recipe-detailes" font-family="AvenirNext-Regular, Avenir Next" font-size="21" font-weight="normal" fill="#673AB7">
                <tspan x="15" y="40">Recipe detailes</tspan>
            </text>
            <text id="--image---author---r" filter="url(#filter-8)" font-family="AvenirNext-Regular, Avenir Next" font-size="14" font-weight="normal" fill="#673AB7">
                <tspan x="17" y="96">- image</tspan>
                <tspan x="17" y="123.6">- author</tspan>
                <tspan x="17" y="151.2">- raiting</tspan>
                <tspan x="17" y="178.8">- save button (if logged in)</tspan>
                <tspan x="17" y="206.4">- ingidience</tspan>
                <tspan x="17" y="234">- dirrections</tspan>
                <tspan x="17" y="261.6"></tspan>
                <tspan x="17" y="289.2"></tspan>
            </text>
        </g>
        <g id="Group-Copy-9" transform="translate(1137.000000, 350.000000)">
            <rect id="Rectangle" stroke="#C7C5C5" fill="#F7F5F5" x="0" y="0" width="224" height="226"></rect>
            <polyline id="Line" stroke="#979797" stroke-linecap="square" points="22.5 61.5 108.40625 61.5 193.5 61.5"></polyline>
            <text id="Chef-detailes" font-family="AvenirNext-Regular, Avenir Next" font-size="21" font-weight="normal" fill="#673AB7">
                <tspan x="15" y="40">Chef detailes</tspan>
            </text>
            <text id="--photo---folow-butt" filter="url(#filter-10)" font-family="AvenirNext-Regular, Avenir Next" font-size="14" font-weight="normal" fill="#673AB7">
                <tspan x="17" y="94">- photo</tspan>
                <tspan x="17" y="121.6">- folow button</tspan>
                <tspan x="17" y="149.2">- story</tspan>
                <tspan x="17" y="176.8">- recepies</tspan>
                <tspan x="17" y="204.4">- classes</tspan>
                <tspan x="17" y="232"></tspan>
                <tspan x="17" y="259.6"></tspan>
            </text>
        </g>
        <g id="Group-Copy-10" transform="translate(1137.000000, 79.000000)">
            <rect id="Rectangle" stroke="#C7C5C5" fill="#F7F5F5" x="0" y="0" width="224" height="237"></rect>
            <path d="M22.5,65.5 L193.5,65.5" id="Line" stroke="#979797" stroke-linecap="square"></path>
            <text id="Country" font-family="AvenirNext-Regular, Avenir Next" font-size="21" font-weight="normal" fill="#673AB7">
                <tspan x="15" y="40">Country</tspan>
            </text>
            <text id="--map-(location)---f" filter="url(#filter-12)" font-family="AvenirNext-Regular, Avenir Next" font-size="14" font-weight="normal" fill="#673AB7">
                <tspan x="17" y="102">- map (location)</tspan>
                <tspan x="17" y="129.6">- flag</tspan>
                <tspan x="17" y="157.2">- users and cheffes</tspan>
                <tspan x="17" y="184.8">- recepies</tspan>
                <tspan x="17" y="212.4">- classes</tspan>
                <tspan x="17" y="240"></tspan>
                <tspan x="17" y="267.6"></tspan>
            </text>
        </g>
        <g id="Group-Copy-2" transform="translate(449.000000, 576.000000)">
            <rect id="Rectangle" stroke="#C7C5C5" fill="#F7F5F5" x="0" y="0" width="224" height="186"></rect>
            <path d="M22.5,58.5 L193.5,58.5" id="Line" stroke="#979797" stroke-linecap="square"></path>
            <text id="Recipes" font-family="AvenirNext-Regular, Avenir Next" font-size="21" font-weight="normal" fill="#673AB7">
                <tspan x="15" y="37">Recipes</tspan>
            </text>
            <text id="--filters-by-cutegor" filter="url(#filter-14)" font-family="AvenirNext-Regular, Avenir Next" font-size="14" font-weight="normal" fill="#673AB7">
                <tspan x="17" y="97">- filters by cutegory</tspan>
                <tspan x="17" y="124.6">- detailed filters</tspan>
                <tspan x="17" y="152.2">- list with images and raitings</tspan>
            </text>
        </g>
        <g id="Group-Copy-3" transform="translate(6.000000, 441.000000)">
            <rect id="Rectangle" stroke="#C7C5C5" fill="#F7F5F5" x="0" y="0" width="224" height="321"></rect>
            <path d="M22.5,58.5 L193.5,58.5" id="Line" stroke="#979797" stroke-linecap="square"></path>
            <text id="My-Account" font-family="AvenirNext-Regular, Avenir Next" font-size="21" font-weight="normal" fill="#673AB7">
                <tspan x="15" y="37">My Account</tspan>
            </text>
            <text id="--name---avatar---up" filter="url(#filter-16)" font-family="AvenirNext-Regular, Avenir Next" font-size="14" font-weight="normal" fill="#673AB7">
                <tspan x="17" y="97">- name</tspan>
                <tspan x="17" y="124.6">- avatar</tspan>
                <tspan x="17" y="152.2">- upcoming classes</tspan>
                <tspan x="17" y="179.8">- saved recipies</tspan>
                <tspan x="17" y="207.4">- shared recipies</tspan>
                <tspan x="17" y="235">- folowing status </tspan>
                <tspan x="17" y="262.6">- become a cheff</tspan>
                <tspan x="17" y="290.2"></tspan>
                <tspan x="17" y="317.8"></tspan>
                <tspan x="17" y="345.4"></tspan>
            </text>
        </g>
        <text id="logged-in" font-family="AvenirNext-Regular, Avenir Next" font-size="21" font-weight="normal" fill="#673AB7">
            <tspan x="253" y="576">logged in</tspan>
        </text>
        <text id="without-login" font-family="AvenirNext-Regular, Avenir Next" font-size="21" font-weight="normal" fill="#673AB7">
            <tspan x="253" y="177">without login</tspan>
        </text>
        <path id="Line-4-Copy-3" d="M442.5,107.5 L451.5,112 L442.5,116.5 L442.5,112.5 L400.5,112.5 L400.5,111.5 L442.5,111.5 L442.5,107.5 Z" fill="#979797" fill-rule="nonzero"></path>
        <path d="M401.5,111.5 L399,676" id="Line-6-Copy" stroke="#979797" stroke-linecap="square"></path>
        <path id="Line-4-Copy-5" d="M440.705864,671.334375 L449.749975,675.74505 L440.794969,680.333934 L440.754,676.334 L398.254975,676.754926 L398.245074,675.754975 L440.745,675.334 L440.705864,671.334375 Z" fill="#979797" fill-rule="nonzero"></path>
        <path id="Line-4-Copy-6" d="M764,671 L773,675.5 L764,680 L764,676 L675,676 L675,675 L764,675 L764,671 Z" fill="#979797" fill-rule="nonzero"></path>
        <path id="Line-4-Copy-7" d="M758.112498,106.898694 L767.124998,111.373607 L758.137568,115.898659 L758.126,111.898 L676.376395,112.126391 L676.373609,111.126395 L758.123,110.898 L758.112498,106.898694 Z" fill="#979797" fill-rule="nonzero"></path>
        <path id="Line-2" d="M119,337 L119,432 L123,432 L118.5,441 L114,432 L118,432 L118,337 L119,337 Z" fill="#979797" fill-rule="nonzero"></path>
        <path id="Line-3" d="M390.5,597.5 L399.5,602 L390.5,606.5 L390.5,602.5 L229.5,602.5 L229.5,601.5 L390.5,601.5 L390.5,597.5 Z" fill="#979797" fill-rule="nonzero"></path>
        <path id="Line-3-Copy" d="M391.5,184.5 L400.5,189 L391.5,193.5 L391.5,189.5 L230.5,189.5 L230.5,188.5 L391.5,188.5 L391.5,184.5 Z" fill="#979797" fill-rule="nonzero"></path>
        <path id="Line-5" d="M1249.5,317 L1254,326 L1250,326 L1250,346 L1249,346 L1249,326 L1245,326 L1249.5,317 Z" fill="#979797" fill-rule="nonzero"></path>
        <path id="Line-6" d="M1235,318 L1235,338 L1239,338 L1234.5,347 L1230,338 L1234,338 L1234,318 L1235,318 Z" fill="#979797" fill-rule="nonzero"></path>
        <path id="Line-7" d="M1123,449 L1132,453.5 L1123,458 L1123,454 L401,454 L401,453 L1123,453 L1123,449 Z" fill="#979797" fill-rule="nonzero"></path>
    </g>
</svg>