<?xml version="1.0" encoding="UTF-8"?>
<svg width="320px" height="1024px" viewBox="0 0 320 1024" version="1.1" xmlns="http://www.w3.org/2000/svg" xmlns:xlink="http://www.w3.org/1999/xlink">
    <!-- Generator: Sketch 57.1 (83088) - https://sketch.com -->
    <title>Schedule</title>
    <desc>Created with Sketch.</desc>
    <defs>
        <rect id="path-1" x="0" y="0" width="290" height="99"></rect>
        <filter x="-2.1%" y="-6.1%" width="104.1%" height="112.1%" filterUnits="objectBoundingBox" id="filter-2">
            <feOffset dx="0" dy="0" in="SourceAlpha" result="shadowOffsetOuter1"></feOffset>
            <feGaussianBlur stdDeviation="2" in="shadowOffsetOuter1" result="shadowBlurOuter1"></feGaussianBlur>
            <feColorMatrix values="0 0 0 0 0   0 0 0 0 0   0 0 0 0 0  0 0 0 0.5 0" type="matrix" in="shadowBlurOuter1"></feColorMatrix>
        </filter>
        <rect id="path-3" x="0" y="0" width="300" height="99"></rect>
        <filter x="-2.0%" y="-6.1%" width="104.0%" height="112.1%" filterUnits="objectBoundingBox" id="filter-4">
            <feOffset dx="0" dy="0" in="SourceAlpha" result="shadowOffsetOuter1"></feOffset>
            <feGaussianBlur stdDeviation="2" in="shadowOffsetOuter1" result="shadowBlurOuter1"></feGaussianBlur>
            <feColorMatrix values="0 0 0 0 0   0 0 0 0 0   0 0 0 0 0  0 0 0 0.5 0" type="matrix" in="shadowBlurOuter1"></feColorMatrix>
        </filter>
        <rect id="path-5" x="0" y="0" width="300" height="99"></rect>
        <filter x="-2.0%" y="-6.1%" width="104.0%" height="112.1%" filterUnits="objectBoundingBox" id="filter-6">
            <feOffset dx="0" dy="0" in="SourceAlpha" result="shadowOffsetOuter1"></feOffset>
            <feGaussianBlur stdDeviation="2" in="shadowOffsetOuter1" result="shadowBlurOuter1"></feGaussianBlur>
            <feColorMatrix values="0 0 0 0 0   0 0 0 0 0   0 0 0 0 0  0 0 0 0.5 0" type="matrix" in="shadowBlurOuter1"></feColorMatrix>
        </filter>
        <rect id="path-7" x="0" y="0" width="300" height="99"></rect>
        <filter x="-2.0%" y="-6.1%" width="104.0%" height="112.1%" filterUnits="objectBoundingBox" id="filter-8">
            <feOffset dx="0" dy="0" in="SourceAlpha" result="shadowOffsetOuter1"></feOffset>
            <feGaussianBlur stdDeviation="2" in="shadowOffsetOuter1" result="shadowBlurOuter1"></feGaussianBlur>
            <feColorMatrix values="0 0 0 0 0   0 0 0 0 0   0 0 0 0 0  0 0 0 0.5 0" type="matrix" in="shadowBlurOuter1"></feColorMatrix>
        </filter>
    </defs>
    <g id="Schedule" stroke="none" stroke-width="1" fill="none" fill-rule="evenodd">
        <rect fill="#FFFFFF" x="0" y="0" width="320" height="1024"></rect>
        <path d="M0,49.9325801 C8.21044186,47.937646 14.0429627,47.937646 17.4975624,49.9325801 C22.679462,52.9249813 30.6723808,52.9000723 44.799855,49.9325801 C58.9273291,46.965088 89.9502608,52.9249813 106.012389,52.9249813 C122.074517,52.9249813 145.311885,47.1178632 154.490244,47.1178632 C163.668603,47.1178632 165.243321,52.0747541 171.790629,52.0747541 C178.337936,52.0747541 183.281183,47.1178632 198.290891,47.1178632 C213.300598,47.1178632 211.680888,53.7752084 221.029434,52.9249813 C230.37798,52.0747541 225.010244,50.0787129 235.147127,47.1178632 C245.284011,44.1570135 265.788605,50.3079579 284.818247,49.9325801 C297.504674,49.6823283 309.231925,47.8838985 320,44.5372909 L320,0 L0,0 L0,49.9325801 Z" id="Path-3-Copy" fill="#FF4D1D"></path>
        <path d="" id="Path-2" stroke="#000000" stroke-width="3"></path>
        <g id="calendar-event" transform="translate(15.000000, 627.000000)">
            <g id="Rectangle-Copy-2">
                <use fill="black" fill-opacity="1" filter="url(#filter-2)" xlink:href="#path-1"></use>
                <use fill="#FFFFFF" fill-rule="evenodd" xlink:href="#path-1"></use>
            </g>
            <path d="M26.4411765,51 C32.7382813,51 32.7382813,56.6666667 26.4411765,68 C20.1440717,56.6666667 20.1440717,51 26.4411765,51 Z M26.4411765,54 C25.0279773,54 23.8823529,55.3431458 23.8823529,57 C23.8823529,58.6568542 25.0279773,60 26.4411765,60 C27.8543757,60 29,58.6568542 29,57 C29,55.3431458 27.8543757,54 26.4411765,54 Z" id="Combined-Shape" fill="#FF4D1D" fill-rule="evenodd"></path>
            <text id="Publix-Super-Market" font-family="Avenir-Medium, Avenir" font-size="11" font-weight="400" fill="#4A4A4A">
                <tspan x="39.2352941" y="66">Publix Super Market at Hickory Flat Village …</tspan>
            </text>
            <text id="Dec-23,-2019-6:30-PM" font-family="Avenir-Light, Avenir" font-size="12" font-weight="300" fill="#FF4D1D">
                <tspan x="23.0294118" y="22">Dec 29, 2018   6:30 PM</tspan>
            </text>
            <text id="What’s-cooking" font-family="HiraKakuStd-W8, Hiragino Kaku Gothic Std" font-size="11" font-weight="600" letter-spacing="0.5" fill="#FF4D1D">
                <tspan x="168.443118" y="85">What’s cooking</tspan>
            </text>
            <text id="Romania-christmas-tr" font-family="Avenir-Book, Avenir" font-size="18" font-weight="normal" letter-spacing="0.3" fill="#4A4A4A">
                <tspan x="23.0294118" y="43">South African feast</tspan>
            </text>
        </g>
        <g id="H1" transform="translate(12.000000, 70.000000)" fill="#4A4A4A" font-family="Avenir-Book, Avenir" font-size="16" font-weight="normal" letter-spacing="1.1">
            <text id="Maria’s-Recipes">
                <tspan x="59.742" y="19.08">COOKING CLASSES </tspan>
            </text>
        </g>
        <g id="H1" transform="translate(15.000000, 582.000000)" fill="#4A4A4A" font-family="Avenir-Book, Avenir" font-size="16" font-weight="normal" letter-spacing="1.1">
            <text id="Maria’s-Recipes">
                <tspan x="85.64" y="19.08">WELL DONE!!!</tspan>
            </text>
        </g>
        <text id="20" font-family="LucidaGrande-Bold, Lucida Grande" font-size="12" font-weight="bold" fill="#9B9B9B">
            <tspan x="280" y="648">20</tspan>
        </text>
        <path d="M268.433018,653 C276.554045,646.211314 279.504862,641.019967 277.285468,637.425957 C275.066073,633.831947 272.115257,634.231281 268.433018,638.62396 C264.768563,634.231281 261.854666,633.831947 259.691326,637.425957 C257.527987,641.019967 260.441884,646.211314 268.433018,653 Z" id="Path-4" fill="#FF4D1D"></path>
        <g id="Group" transform="translate(17.000000, 7.000000)" font-family="HiraKakuStd-W8, Hiragino Kaku Gothic Std" font-size="12" font-weight="600">
            <text id="Cooking-Classes" line-spacing="14" fill="#F8E71C">
                <tspan x="0.212" y="11">Cooking</tspan>
                <tspan x="1.94" y="25">Classes</tspan>
            </text>
            <text id="Global-Recipes" fill="#FFFFFF">
                <tspan x="125.076" y="14">Global</tspan>
                <tspan x="119.316" y="26">Recipes</tspan>
            </text>
            <text id="My-Kitchen" fill="#FFFFFF">
                <tspan x="248.072" y="14">My</tspan>
                <tspan x="231.596" y="26">Kitchen</tspan>
            </text>
        </g>
        <g id="calendar-event-with-signin" transform="translate(10.000000, 348.000000)">
            <g id="Rectangle-Copy-2">
                <use fill="black" fill-opacity="1" filter="url(#filter-4)" xlink:href="#path-3"></use>
                <use fill="#FFFFFF" fill-rule="evenodd" xlink:href="#path-3"></use>
            </g>
            <path d="M27.3529412,51 C33.8671875,51 33.8671875,56.6666667 27.3529412,68 C20.8386949,56.6666667 20.8386949,51 27.3529412,51 Z M27.3529412,54 C25.891011,54 24.7058824,55.3431458 24.7058824,57 C24.7058824,58.6568542 25.891011,60 27.3529412,60 C28.8148714,60 30,58.6568542 30,57 C30,55.3431458 28.8148714,54 27.3529412,54 Z" id="Combined-Shape" fill="#FF4D1D" fill-rule="evenodd"></path>
            <text id="Publix-Super-Market" font-family="Avenir-Medium, Avenir" font-size="11" font-weight="400" fill="#4A4A4A">
                <tspan x="41.4705882" y="63">Publix Super Market at Hickory Flat Village …</tspan>
            </text>
            <text id="Dec-23,-2019-6:30-PM" font-family="Avenir-Light, Avenir" font-size="12" font-weight="300" fill="#FF4D1D">
                <tspan x="23.8235294" y="22">Jan 20 2020   7:30 PM</tspan>
            </text>
            <text id="What’s-cooking" font-family="HiraKakuStd-W8, Hiragino Kaku Gothic Std" font-size="11" font-weight="600" letter-spacing="0.5" fill="#FF4D1D">
                <tspan x="185.884294" y="87">What’s cooking</tspan>
            </text>
            <text id="Romania-christmas-tr" font-family="Avenir-Book, Avenir" font-size="18" font-weight="normal" letter-spacing="0.3" fill="#4A4A4A">
                <tspan x="23.8235294" y="44">Bolivian Spicy Chicken</tspan>
            </text>
            <text id="I’m-going" font-family="HiraKakuStd-W8, Hiragino Kaku Gothic Std" font-size="11" font-weight="600" fill="#FF4D1D">
                <tspan x="22.0588235" y="87">I’m going</tspan>
            </text>
            <rect id="Rectangle" stroke="#FF4D1D" stroke-width="1" x="85.0588235" y="75" width="13.2352941" height="15" rx="3"></rect>
        </g>
        <g id="calendar-event-with-signin" transform="translate(10.000000, 470.000000)">
            <g id="Rectangle-Copy-2">
                <use fill="black" fill-opacity="1" filter="url(#filter-6)" xlink:href="#path-5"></use>
                <use fill="#FFFFFF" fill-rule="evenodd" xlink:href="#path-5"></use>
            </g>
            <path d="M27.3529412,51 C33.8671875,51 33.8671875,56.6666667 27.3529412,68 C20.8386949,56.6666667 20.8386949,51 27.3529412,51 Z M27.3529412,54 C25.891011,54 24.7058824,55.3431458 24.7058824,57 C24.7058824,58.6568542 25.891011,60 27.3529412,60 C28.8148714,60 30,58.6568542 30,57 C30,55.3431458 28.8148714,54 27.3529412,54 Z" id="Combined-Shape" fill="#FF4D1D" fill-rule="evenodd"></path>
            <text id="Publix-Super-Market" font-family="Avenir-Medium, Avenir" font-size="11" font-weight="400" fill="#4A4A4A">
                <tspan x="41.4705882" y="63">Publix Super Market at Hickory Flat Village …</tspan>
            </text>
            <text id="Dec-23,-2019-6:30-PM" font-family="Avenir-Light, Avenir" font-size="12" font-weight="300" fill="#FF4D1D">
                <tspan x="23.8235294" y="22">Feb 20 2020   7:30 PM</tspan>
            </text>
            <text id="What’s-cooking" font-family="HiraKakuStd-W8, Hiragino Kaku Gothic Std" font-size="11" font-weight="600" letter-spacing="0.5" fill="#FF4D1D">
                <tspan x="185.884294" y="87">What’s cooking</tspan>
            </text>
            <text id="Romania-christmas-tr" font-family="Avenir-Book, Avenir" font-size="18" font-weight="normal" letter-spacing="0.3" fill="#4A4A4A">
                <tspan x="23.8235294" y="44">South African traditions</tspan>
            </text>
            <text id="I’m-going" font-family="HiraKakuStd-W8, Hiragino Kaku Gothic Std" font-size="11" font-weight="600" fill="#FF4D1D">
                <tspan x="22.0588235" y="87">I’m going</tspan>
            </text>
            <rect id="Rectangle" stroke="#FF4D1D" stroke-width="1" x="85.0588235" y="75" width="13.2352941" height="15" rx="3"></rect>
        </g>
        <g id="calendar-event-with-signin" transform="translate(10.000000, 226.000000)">
            <g id="Rectangle-Copy-2">
                <use fill="black" fill-opacity="1" filter="url(#filter-8)" xlink:href="#path-7"></use>
                <use fill="#FFFFFF" fill-rule="evenodd" xlink:href="#path-7"></use>
            </g>
            <path d="M27.3529412,51 C33.8671875,51 33.8671875,56.6666667 27.3529412,68 C20.8386949,56.6666667 20.8386949,51 27.3529412,51 Z M27.3529412,54 C25.891011,54 24.7058824,55.3431458 24.7058824,57 C24.7058824,58.6568542 25.891011,60 27.3529412,60 C28.8148714,60 30,58.6568542 30,57 C30,55.3431458 28.8148714,54 27.3529412,54 Z" id="Combined-Shape" fill="#FF4D1D" fill-rule="evenodd"></path>
            <text id="Publix-Super-Market" font-family="Avenir-Medium, Avenir" font-size="11" font-weight="400" fill="#4A4A4A">
                <tspan x="41.4705882" y="63">Publix Super Market at Hickory Flat Village …</tspan>
            </text>
            <text id="Dec-23,-2019-6:30-PM" font-family="Avenir-Light, Avenir" font-size="12" font-weight="300" fill="#FF4D1D">
                <tspan x="23.8235294" y="22">Dec 23, 2019   6:30 PM</tspan>
            </text>
            <text id="What’s-cooking" font-family="HiraKakuStd-W8, Hiragino Kaku Gothic Std" font-size="11" font-weight="600" letter-spacing="0.5" fill="#FF4D1D">
                <tspan x="185.884294" y="87">What’s cooking</tspan>
            </text>
            <text id="Romania-christmas-tr" font-family="Avenir-Book, Avenir" font-size="18" font-weight="normal" letter-spacing="0.3" fill="#4A4A4A">
                <tspan x="23.8235294" y="44">Romania christmas traditions</tspan>
            </text>
            <text id="I’m-going" font-family="HiraKakuStd-W8, Hiragino Kaku Gothic Std" font-size="11" font-weight="600" fill="#FF4D1D">
                <tspan x="22.0588235" y="87">I’m going</tspan>
            </text>
            <rect id="Rectangle" stroke="#FF4D1D" stroke-width="1" x="85.0588235" y="75" width="13.2352941" height="15" rx="3"></rect>
        </g>
        <g id="sort-by-1" transform="translate(10.000000, 140.000000)">
            <g id="Group-4-Copy">
                <text id="Origin" font-family="LucidaGrande-Bold, Lucida Grande" font-size="12" font-weight="bold" fill="#4A4A4A">
                    <tspan x="6" y="17">Origin</tspan>
                </text>
                <rect id="Rectangle-Copy" stroke="#979797" x="0.5" y="0.5" width="144" height="23"></rect>
                <polyline id="Path-6-Copy" stroke="#4A4A4A" stroke-width="2" points="126 10 129.988549 15 134 10"></polyline>
            </g>
            <g id="Group-5-Copy" transform="translate(155.000000, 0.000000)">
                <text id="Diet" font-family="LucidaGrande-Bold, Lucida Grande" font-size="12" font-weight="bold" fill="#4A4A4A">
                    <tspan x="6.04166667" y="17">Diet</tspan>
                </text>
                <rect id="Rectangle-Copy" stroke="#979797" x="0.5" y="0.5" width="144" height="23"></rect>
                <polyline id="Path-6-Copy" stroke="#4A4A4A" stroke-width="2" points="124.458333 10 128.675393 15 132.916667 10"></polyline>
            </g>
            <g id="Group-3-Copy" transform="translate(0.000000, 33.000000)">
                <text id="Meal-Type" font-family="LucidaGrande-Bold, Lucida Grande" font-size="12" font-weight="bold" fill="#4A4A4A">
                    <tspan x="7" y="17">Meal Type</tspan>
                </text>
                <rect id="Rectangle-Copy" stroke="#979797" x="0.5" y="0.5" width="144" height="23"></rect>
                <polyline id="Path-6-Copy" stroke="#4A4A4A" stroke-width="2" points="126 10 129.988549 15 134 10"></polyline>
            </g>
            <g id="Group-6-Copy" transform="translate(155.000000, 33.000000)">
                <text id="Easiness" font-family="LucidaGrande-Bold, Lucida Grande" font-size="12" font-weight="bold" fill="#4A4A4A">
                    <tspan x="7.25" y="17">Easiness</tspan>
                </text>
                <rect id="Rectangle-Copy" stroke="#979797" x="0.5" y="0.5" width="144" height="23"></rect>
                <polyline id="Path-6-Copy" stroke="#4A4A4A" stroke-width="2" points="124.458333 10 128.675393 15 132.916667 10"></polyline>
            </g>
        </g>
    </g>
</svg>