<?xml version="1.0" encoding="utf-8"?>
<!-- Generator: Adobe Illustrator 25.3.1, SVG Export Plug-In . SVG Version: 6.00 Build 0)  -->
<svg version="1.1" id="Layer_1" xmlns="http://www.w3.org/2000/svg" xmlns:xlink="http://www.w3.org/1999/xlink" x="0px" y="0px"
	 viewBox="0 0 1366 787" style="enable-background:new 0 0 1366 787;" xml:space="preserve">
<style type="text/css">
	.st0{fill-rule:evenodd;clip-rule:evenodd;fill:#F7F5F5;stroke:#C7C5C5;}
	.st1{fill:none;stroke:#979797;stroke-linecap:square;}
	.st2{fill:#673AB7;}
	.st3{font-family:'AvenirNext-Regular';}
	.st4{font-size:21px;}
	.st5{font-size:14px;}
	.st6{fill:#673AB7;filter:url(#filter-4);}
	.st7{enable-background:new    ;}
	.st8{filter:url(#filter-6);enable-background:new    ;}
	.st9{fill:#979797;}
	.st10{fill:#673AB7;filter:url(#filter-8);}
	.st11{fill:#673AB7;filter:url(#filter-10);}
	.st12{filter:url(#filter-12);enable-background:new    ;}
	.st13{filter:url(#filter-14);enable-background:new    ;}
	.st14{fill:#673AB7;filter:url(#filter-16);}
	.st15{font-family:'MyriadPro-Regular';}
	.st16{font-size:12px;}
</style>
<filter  filterUnits="objectBoundingBox" height="136.5%" id="filter-8" width="100.0%" x="0.0%" y="0.0%">
	<feGaussianBlur  in="SourceGraphic" stdDeviation="0"></feGaussianBlur>
</filter>
<filter  filterUnits="objectBoundingBox" height="126.8%" id="filter-6" width="100.0%" x="0.0%" y="0.0%">
	<feGaussianBlur  in="SourceGraphic" stdDeviation="0"></feGaussianBlur>
</filter>
<filter  filterUnits="objectBoundingBox" height="121.6%" id="filter-4" width="100.0%" x="0.0%" y="0.0%">
	<feGaussianBlur  in="SourceGraphic" stdDeviation="0"></feGaussianBlur>
</filter>
<filter  filterUnits="objectBoundingBox" height="119.6%" id="filter-16" width="100.0%" x="0.0%" y="0.0%">
	<feGaussianBlur  in="SourceGraphic" stdDeviation="0"></feGaussianBlur>
</filter>
<filter  filterUnits="objectBoundingBox" height="100.0%" id="filter-14" width="100.0%" x="0.0%" y="0.0%">
	<feGaussianBlur  in="SourceGraphic" stdDeviation="0"></feGaussianBlur>
</filter>
<filter  filterUnits="objectBoundingBox" height="136.0%" id="filter-12" width="100.0%" x="0.0%" y="0.0%">
	<feGaussianBlur  in="SourceGraphic" stdDeviation="0"></feGaussianBlur>
</filter>
<filter  filterUnits="objectBoundingBox" height="145.7%" id="filter-10" width="100.0%" x="0.0%" y="0.0%">
	<feGaussianBlur  in="SourceGraphic" stdDeviation="0"></feGaussianBlur>
</filter>
<desc>Created with Sketch.</desc>
<rect id="Rectangle" x="6" y="17" class="st0" width="224" height="307.2"/>
<path id="Line" class="st1" d="M28.5,78.5h171"/>
<text transform="matrix(1 0 0 1 21 54)" class="st2 st3 st4">Login/landing page</text>
<text transform="matrix(1 0 0 1 23 122)" class="st2 st3 st5">- Login ( note that it is needed </text>
<text transform="matrix(1 0 0 1 23 141)" class="st2 st3 st5">to save favorites and to sign </text>
<text transform="matrix(1 0 0 1 23 160)" class="st2 st3 st5">up for classes)</text>
<text transform="matrix(1 0 0 1 113.6065 152)" class="st2 st3 st5"> </text>
<text transform="matrix(1 0 0 1 77.4173 198.6)" class="st2 st3 st5"> </text>
<text transform="matrix(1 0 0 1 24.2041 187.1679)" class="st2 st3 st5">- coming up classes </text>
<text transform="matrix(1 0 0 1 24.2041 214.7679)" class="st2 st3 st5">- recent classes</text>
<text transform="matrix(1 0 0 1 119.5145 253.8)" class="st2 st3 st5"> </text>
<text transform="matrix(1 0 0 1 24.2041 242.3679)" class="st2 st3 st5">- recipes</text>
<text transform="matrix(1 0 0 1 88.8972 281.4)" class="st2 st3 st5"> </text>
<text transform="matrix(1 0 0 1 24.2041 269.9679)" class="st2 st3 st5">- our chefs</text>
<g id="Group-Copy" transform="translate(453.000000, 17.000000)">
	<rect id="Rectangle_1_" class="st0" width="224" height="344"/>
	<path id="Line_1_" class="st1" d="M22.5,70.5h171"/>
	<text transform="matrix(1 0 0 1 15 40)" class="st2 st3 st4">Cooking classes</text>
	<text transform="matrix(1 0 0 1 17 114)" class="st6 st3 st5">- filter</text>
	<text transform="matrix(1 0 0 1 53.6233 114)" class="st2 st3 st5"> </text>
	<text transform="matrix(1 0 0 1 17 141.6)" class="st7"><tspan x="0" y="0" class="st2 st3 st5">- list o</tspan><tspan x="37.7" y="0" class="st2 st3 st5">f</tspan><tspan x="42.2" y="0" class="st2 st3 st5"> classes :</tspan></text>
	<text transform="matrix(1 0 0 1 115.0402 141.6)" class="st2 st3 st5"> </text>
	<text transform="matrix(1 0 0 1 17 169.2)" class="st7"><tspan x="0" y="0" class="st2 st3 st5">- d</tspan><tspan x="16.9" y="0" class="st2 st3 st5">a</tspan><tspan x="24.2" y="0" class="st2 st3 st5">te and time</tspan></text>
	<text transform="matrix(1 0 0 1 113.5149 169.2)" class="st2 st3 st5"> </text>
	<text transform="matrix(1 0 0 1 17 196.8)" class="st7"><tspan x="0" y="0" class="st2 st3 st5">- loc</tspan><tspan x="27.1" y="0" class="st2 st3 st5">a</tspan><tspan x="34.4" y="0" class="st2 st3 st5">tion</tspan></text>
	<text transform="matrix(1 0 0 1 76.0234 196.8)" class="st2 st3 st5"> </text>
	<text transform="matrix(1 0 0 1 17 224.4)" class="st2 st3 st5">- origin</text>
	<text transform="matrix(1 0 0 1 62.5553 224.4)" class="st2 st3 st5"> </text>
	<text transform="matrix(1 0 0 1 17 252)" class="st2 st3 st5">- diet and menu</text>
	<text transform="matrix(1 0 0 1 118.0089 252)" class="st2 st3 st5"> </text>
	<text transform="matrix(1 0 0 1 17 279.6)" class="st7"><tspan x="0" y="0" class="st2 st3 st5">- sign up (i</tspan><tspan x="66.4" y="0" class="st2 st3 st5">f</tspan><tspan x="70.9" y="0" class="st2 st3 st5"> logged in)</tspan></text>
	<text transform="matrix(1 0 0 1 157.4039 279.6)" class="st2 st3 st5"> </text>
	<text transform="matrix(1 0 0 1 17 307.2)" class="st7"><tspan x="0" y="0" class="st2 st3 st5">- list o</tspan><tspan x="37.7" y="0" class="st2 st3 st5">f</tspan><tspan x="42.2" y="0" class="st2 st3 st5"> completed classes </tspan></text>
	<text transform="matrix(1 0 0 1 17 326.2)" class="st7"><tspan x="0" y="0" class="st2 st3 st5">with </tspan><tspan x="30" y="0" class="st2 st3 st5">r</tspan><tspan x="34.8" y="0" class="st2 st3 st5">eviews</tspan></text>
</g>
<g id="Group-Copy-5" transform="translate(772.000000, 17.000000)">
	<rect id="Rectangle_2_" class="st0" width="224" height="252"/>
	<path id="Line_2_" class="st1" d="M22.5,60.5h171"/>
	<text transform="matrix(1 0 0 1 15 37)" class="st2 st3 st4">Class detailes</text>
	<text transform="matrix(1 0 0 1 17 93)" class="st8"><tspan x="0" y="0" class="st2 st3 st5">- d</tspan><tspan x="16.9" y="0" class="st2 st3 st5">a</tspan><tspan x="24.2" y="0" class="st2 st3 st5">te and time</tspan></text>
	<text transform="matrix(1 0 0 1 113.5149 93)" class="st2 st3 st5"> </text>
	<text transform="matrix(1 0 0 1 17 120.6)" class="st2 st3 st5">- topic</text>
	<text transform="matrix(1 0 0 1 57.3616 120.6)" class="st2 st3 st5"> </text>
	<text transform="matrix(1 0 0 1 17 148.2)" class="st7"><tspan x="0" y="0" class="st2 st3 st5">- c</tspan><tspan x="15" y="0" class="st2 st3 st5">r</tspan><tspan x="19.8" y="0" class="st2 st3 st5">e</tspan><tspan x="27.7" y="0" class="st2 st3 st5">a</tspan><tspan x="35" y="0" class="st2 st3 st5">tor</tspan></text>
	<text transform="matrix(1 0 0 1 70.0593 148.2)" class="st2 st3 st5"> </text>
	<text transform="matrix(1 0 0 1 17 175.8)" class="st7"><tspan x="0" y="0" class="st2 st3 st5">- loc</tspan><tspan x="27.1" y="0" class="st2 st3 st5">a</tspan><tspan x="34.4" y="0" class="st2 st3 st5">tion</tspan></text>
	<text transform="matrix(1 0 0 1 76.0234 175.8)" class="st2 st3 st5"> </text>
	<text transform="matrix(1 0 0 1 17 203.4)" class="st2 st3 st5">- menu</text>
	<text transform="matrix(1 0 0 1 61.6176 203.4)" class="st2 st3 st5"> </text>
	<text transform="matrix(1 0 0 1 17 231)" class="st2 st3 st5">- country</text>
</g>
<path id="Line-4" class="st9" d="M874.5,268.5L875,500l4,0l-4.5,9l-4.5-9l4,0l-0.5-231.5L874.5,268.5z"/>
<path id="Line-4-Copy" class="st9" d="M995.7,132.8l132.7,289.7l3.6-1.7l-0.3,10.1l-7.8-6.3l3.6-1.7L994.8,133.3L995.7,132.8z"/>
<path id="Line-4-Copy-4" class="st9" d="M1131.8,476.1l-2.4,9.8l-3-2.6L996.6,636.2l-0.8-0.6l129.8-152.9l-3-2.6L1131.8,476.1z"/>
<path id="Line-4-Copy-8" class="st9" d="M1131.7,206l1.3,10l-3.8-1.3L986.6,621.9l-0.9-0.3l142.6-407.2l-3.8-1.3L1131.7,206z"/>
<path id="Line-4-Copy-2" class="st9" d="M995.8,103.3l128.6,76.4l2-3.4l5.4,8.5l-10-0.7l2-3.4l-128.6-76.4L995.8,103.3z"/>
<g id="Group-Copy-8" transform="translate(772.000000, 508.000000)">
	<rect id="Rectangle_3_" class="st0" width="224" height="254"/>
	<path id="Line_3_" class="st1" d="M22.5,65.5h171"/>
	<text transform="matrix(1 0 0 1 15 40)" class="st2 st3 st4">Recipe details</text>
	<text transform="matrix(1 0 0 1 17 96)" class="st10 st3 st5">- image</text>
	<text transform="matrix(1 0 0 1 65.1735 96)" class="st2 st3 st5"> </text>
	<text transform="matrix(1 0 0 1 17 123.6)" class="st2 st3 st5">- author</text>
	<text transform="matrix(1 0 0 1 66.7832 123.6)" class="st2 st3 st5"> </text>
	<text transform="matrix(1 0 0 1 17 151.2)" class="st7"><tspan x="0" y="0" class="st2 st3 st5">- </tspan><tspan x="8" y="0" class="st2 st3 st5">r</tspan><tspan x="12.9" y="0" class="st2 st3 st5">a</tspan><tspan x="20.2" y="0" class="st2 st3 st5">ting</tspan></text>
	<text transform="matrix(1 0 0 1 65.7473 151.2)" class="st2 st3 st5"> </text>
	<text transform="matrix(1 0 0 1 17 178.8)" class="st7"><tspan x="0" y="0" class="st2 st3 st5">- save bu</tspan><tspan x="57.1" y="0" class="st2 st3 st5">t</tspan><tspan x="61.3" y="0" class="st2 st3 st5">ton (i</tspan><tspan x="93.7" y="0" class="st2 st3 st5">f</tspan><tspan x="98.1" y="0" class="st2 st3 st5"> logged in)</tspan></text>
	<text transform="matrix(1 0 0 1 184.6614 178.8)" class="st2 st3 st5"> </text>
	<text transform="matrix(1 0 0 1 17 206.4)" class="st7"><tspan x="0" y="0" class="st2 st3 st5">- ing</tspan><tspan x="28.5" y="0" class="st2 st3 st5">r</tspan><tspan x="33.2" y="0" class="st2 st3 st5">edients</tspan></text>
	<text transform="matrix(1 0 0 1 92.5292 206.4)" class="st2 st3 st5"> </text>
	<text transform="matrix(1 0 0 1 17 234)" class="st7"><tspan x="0" y="0" class="st2 st3 st5">- di</tspan><tspan x="20.4" y="0" class="st2 st3 st5">r</tspan><tspan x="25.2" y="0" class="st2 st3 st5">ections</tspan></text>
</g>
<g id="Group-Copy-9" transform="translate(1137.000000, 350.000000)">
	<rect id="Rectangle_4_" class="st0" width="224" height="226"/>
	<polyline id="Line_4_" class="st1" points="22.5,61.5 108.4,61.5 193.5,61.5 	"/>
	<text transform="matrix(1 0 0 1 15 40)" class="st2 st3 st4">Chef details</text>
	<text transform="matrix(1 0 0 1 17 94)" class="st11 st3 st5">- photo</text>
	<text transform="matrix(1 0 0 1 63.5773 94)" class="st2 st3 st5"> </text>
	<text transform="matrix(1 0 0 1 17 121.6)" class="st7"><tspan x="0" y="0" class="st2 st3 st5">- follow bu</tspan><tspan x="67.3" y="0" class="st2 st3 st5">t</tspan><tspan x="71.5" y="0" class="st2 st3 st5">ton</tspan></text>
	<text transform="matrix(1 0 0 1 106.1367 121.6)" class="st2 st3 st5"> </text>
	<text transform="matrix(1 0 0 1 17 149.2)" class="st2 st3 st5">- story</text>
	<text transform="matrix(1 0 0 1 56.0591 149.2)" class="st2 st3 st5"> </text>
	<text transform="matrix(1 0 0 1 17 176.8)" class="st7"><tspan x="0" y="0" class="st2 st3 st5">- </tspan><tspan x="8" y="0" class="st2 st3 st5">r</tspan><tspan x="12.8" y="0" class="st2 st3 st5">ecipes</tspan></text>
	<text transform="matrix(1 0 0 1 79.3972 176.8)" class="st2 st3 st5"> </text>
	<text transform="matrix(1 0 0 1 17 204.4)" class="st2 st3 st5">- classes</text>
</g>
<g id="Group-Copy-10" transform="translate(1137.000000, 79.000000)">
	<rect id="Rectangle_5_" class="st0" width="224" height="237"/>
	<path id="Line_5_" class="st1" d="M22.5,65.5h171"/>
	<text transform="matrix(1 0 0 1 15 40)" class="st2 st3 st4">Country</text>
	<text transform="matrix(1 0 0 1 17 102)" class="st12"><tspan x="0" y="0" class="st2 st3 st5">- map (loc</tspan><tspan x="63.5" y="0" class="st2 st3 st5">a</tspan><tspan x="70.8" y="0" class="st2 st3 st5">tion)</tspan></text>
	<text transform="matrix(1 0 0 1 116.6509 102)" class="st2 st3 st5"> </text>
	<text transform="matrix(1 0 0 1 17 129.6)" class="st2 st3 st5">- flag</text>
	<text transform="matrix(1 0 0 1 48.9617 129.6)" class="st2 st3 st5"> </text>
	<text transform="matrix(1 0 0 1 17 157.2)" class="st2 st3 st5">- users and chefs</text>
	<text transform="matrix(1 0 0 1 135.5223 157.2)" class="st2 st3 st5"> </text>
	<text transform="matrix(1 0 0 1 17 184.8)" class="st7"><tspan x="0" y="0" class="st2 st3 st5">- </tspan><tspan x="8" y="0" class="st2 st3 st5">r</tspan><tspan x="12.8" y="0" class="st2 st3 st5">ecipes</tspan></text>
	<text transform="matrix(1 0 0 1 79.3972 184.8)" class="st2 st3 st5"> </text>
	<text transform="matrix(1 0 0 1 17 212.4)" class="st2 st3 st5">- classes</text>
</g>
<g id="Group-Copy-2" transform="translate(449.000000, 576.000000)">
	<rect id="Rectangle_6_" class="st0" width="224" height="186"/>
	<path id="Line_6_" class="st1" d="M22.5,58.5h171"/>
	<text transform="matrix(1 0 0 1 15 37)" class="st2 st3 st4">Recipes</text>
	<text transform="matrix(1 0 0 1 17 97)" class="st13"><tspan x="0" y="0" class="st2 st3 st5">- filters by c</tspan><tspan x="72.6" y="0" class="st2 st3 st5">a</tspan><tspan x="79.9" y="0" class="st2 st3 st5">tegory</tspan></text>
	<text transform="matrix(1 0 0 1 139.4419 97)" class="st2 st3 st5"> </text>
	<text transform="matrix(1 0 0 1 17 124.6)" class="st2 st3 st5">- detailed filters</text>
	<text transform="matrix(1 0 0 1 116.1324 124.6)" class="st2 st3 st5"> </text>
	<text transform="matrix(1 0 0 1 17 152.2)" class="st7"><tspan x="0" y="0" class="st2 st3 st5">- list with images and </tspan><tspan x="137.1" y="0" class="st2 st3 st5">r</tspan><tspan x="142" y="0" class="st2 st3 st5">a</tspan><tspan x="149.4" y="0" class="st2 st3 st5">tings</tspan></text>
</g>
<g id="Group-Copy-3" transform="translate(6.000000, 441.000000)">
	<rect id="Rectangle_7_" class="st0" width="224" height="321"/>
	<path id="Line_7_" class="st1" d="M22.5,58.5h171"/>
	<text transform="matrix(1 0 0 1 15 37)" class="st2 st3 st4">My Account</text>
	<text transform="matrix(1 0 0 1 17 97)" class="st14 st3 st5">- name</text>
	<text transform="matrix(1 0 0 1 60.9596 97)" class="st2 st3 st5"> </text>
	<text transform="matrix(1 0 0 1 17 124.6)" class="st7"><tspan x="0" y="0" class="st2 st3 st5">- av</tspan><tspan x="22.3" y="0" class="st2 st3 st5">a</tspan><tspan x="29.6" y="0" class="st2 st3 st5">tar</tspan></text>
	<text transform="matrix(1 0 0 1 63.5773 124.6)" class="st2 st3 st5"> </text>
	<text transform="matrix(1 0 0 1 17 152.2)" class="st2 st3 st5">- upcoming classes</text>
	<text transform="matrix(1 0 0 1 138.5605 152.2)" class="st2 st3 st5"> </text>
	<text transform="matrix(1 0 0 1 17 179.8)" class="st7"><tspan x="0" y="0" class="st2 st3 st5">- saved </tspan><tspan x="48.9" y="0" class="st2 st3 st5">r</tspan><tspan x="53.7" y="0" class="st2 st3 st5">ecipes</tspan></text>
	<text transform="matrix(1 0 0 1 115.8387 179.8)" class="st2 st3 st5"> </text>
	<text transform="matrix(1 0 0 1 17 207.4)" class="st7"><tspan x="0" y="0" class="st2 st3 st5">- sha</tspan><tspan x="29.8" y="0" class="st2 st3 st5">r</tspan><tspan x="34.6" y="0" class="st2 st3 st5">ed </tspan><tspan x="55" y="0" class="st2 st3 st5">r</tspan><tspan x="59.8" y="0" class="st2 st3 st5">ecipes</tspan></text>
	<text transform="matrix(1 0 0 1 121.9566 207.4)" class="st2 st3 st5"> </text>
	<text transform="matrix(1 0 0 1 17 235)" class="st7"><tspan x="0" y="0" class="st2 st3 st5">- folowing st</tspan><tspan x="77.8" y="0" class="st2 st3 st5">a</tspan><tspan x="85.2" y="0" class="st2 st3 st5">tus </tspan></text>
	<text transform="matrix(1 0 0 1 17 262.6)" class="st7"><tspan x="0" y="0" class="st2 st3 st5">- become a che</tspan><tspan x="98.5" y="0" class="st2 st3 st5">f</tspan></text>
</g>
<text transform="matrix(1 0 0 1 253 576)" class="st2 st3 st4">logged in</text>
<text transform="matrix(1 0 0 1 253 177)" class="st2 st3 st4">without login</text>
<path id="Line-4-Copy-3" class="st9" d="M442.5,107.5l9,4.5l-9,4.5v-4h-42v-1h42V107.5z"/>
<path id="Line-6-Copy" class="st1" d="M401.5,111.5L399,676"/>
<path id="Line-4-Copy-5" class="st9" d="M440.7,671.3l9,4.4l-9,4.6l0-4l-42.5,0.4l0-1l42.5-0.4L440.7,671.3z"/>
<path id="Line-4-Copy-6" class="st9" d="M764,671l9,4.5l-9,4.5v-4h-89v-1h89V671z"/>
<path id="Line-4-Copy-7" class="st9" d="M758.1,106.9l9,4.5l-9,4.5l0-4l-81.7,0.2l0-1l81.7-0.2L758.1,106.9z"/>
<path id="Line-2" class="st9" d="M119,324.2v106.7h4l-4.5,10.1l-4.5-10.1h4V324.2H119z"/>
<path id="Line-3" class="st9" d="M390.5,597.5l9,4.5l-9,4.5v-4h-161v-1h161V597.5z"/>
<path id="Line-3-Copy" class="st9" d="M391.5,184.5l9,4.5l-9,4.5v-4h-161v-1h161V184.5z"/>
<path id="Line-5" class="st9" d="M1249.5,317l4.5,9h-4v20h-1v-20h-4L1249.5,317z"/>
<path id="Line-6" class="st9" d="M1235,318v20h4l-4.5,9l-4.5-9h4v-20H1235z"/>
<path id="Line-7" class="st9" d="M1123,449l9,4.5l-9,4.5v-4H401v-1h722V449z"/>
<text transform="matrix(1 0 0 1 1297 704)" class="st15 st16">Lorem ipsum</text>
</svg>
