<?xml version="1.0" encoding="UTF-8"?>
<svg width="320px" height="1024px" viewBox="0 0 320 1024" version="1.1" xmlns="http://www.w3.org/2000/svg" xmlns:xlink="http://www.w3.org/1999/xlink">
    <!-- Generator: Sketch 57.1 (83088) - https://sketch.com -->
    <title>My account</title>
    <desc>Created with Sketch.</desc>
    <defs>
        <linearGradient x1="50%" y1="0%" x2="50%" y2="99.0214445%" id="linearGradient-1">
            <stop stop-color="#000000" stop-opacity="0" offset="0%"></stop>
            <stop stop-color="#000000" stop-opacity="0.02" offset="80%"></stop>
            <stop stop-color="#000000" stop-opacity="0.04" offset="100%"></stop>
        </linearGradient>
        <linearGradient x1="50%" y1="0%" x2="50%" y2="100%" id="linearGradient-2">
            <stop stop-color="#FFFFFF" stop-opacity="0.12" offset="0%"></stop>
            <stop stop-color="#FFFFFF" stop-opacity="0.06" offset="20%"></stop>
            <stop stop-color="#FFFFFF" stop-opacity="0" offset="100%"></stop>
        </linearGradient>
        <circle id="path-3" cx="11" cy="12" r="10"></circle>
        <filter x="-10.0%" y="-10.0%" width="120.0%" height="125.0%" filterUnits="objectBoundingBox" id="filter-4">
            <feOffset dx="0" dy="1" in="SourceAlpha" result="shadowOffsetOuter1"></feOffset>
            <feGaussianBlur stdDeviation="0.5" in="shadowOffsetOuter1" result="shadowBlurOuter1"></feGaussianBlur>
            <feComposite in="shadowBlurOuter1" in2="SourceAlpha" operator="out" result="shadowBlurOuter1"></feComposite>
            <feColorMatrix values="0 0 0 0 0   0 0 0 0 0   0 0 0 0 0  0 0 0 0.237601902 0" type="matrix" in="shadowBlurOuter1" result="shadowMatrixOuter1"></feColorMatrix>
            <feOffset dx="0" dy="0" in="SourceAlpha" result="shadowOffsetOuter2"></feOffset>
            <feGaussianBlur stdDeviation="0.5" in="shadowOffsetOuter2" result="shadowBlurOuter2"></feGaussianBlur>
            <feComposite in="shadowBlurOuter2" in2="SourceAlpha" operator="out" result="shadowBlurOuter2"></feComposite>
            <feColorMatrix values="0 0 0 0 0   0 0 0 0 0   0 0 0 0 0  0 0 0 0.12 0" type="matrix" in="shadowBlurOuter2" result="shadowMatrixOuter2"></feColorMatrix>
            <feMerge>
                <feMergeNode in="shadowMatrixOuter1"></feMergeNode>
                <feMergeNode in="shadowMatrixOuter2"></feMergeNode>
            </feMerge>
        </filter>
        <rect id="path-5" x="0" y="0" width="300" height="99"></rect>
        <filter x="-2.0%" y="-6.1%" width="104.0%" height="112.1%" filterUnits="objectBoundingBox" id="filter-6">
            <feOffset dx="0" dy="0" in="SourceAlpha" result="shadowOffsetOuter1"></feOffset>
            <feGaussianBlur stdDeviation="2" in="shadowOffsetOuter1" result="shadowBlurOuter1"></feGaussianBlur>
            <feColorMatrix values="0 0 0 0 0   0 0 0 0 0   0 0 0 0 0  0 0 0 0.5 0" type="matrix" in="shadowBlurOuter1"></feColorMatrix>
        </filter>
        <rect id="path-7" x="0" y="0" width="300" height="99"></rect>
        <filter x="-2.0%" y="-6.1%" width="104.0%" height="112.1%" filterUnits="objectBoundingBox" id="filter-8">
            <feOffset dx="0" dy="0" in="SourceAlpha" result="shadowOffsetOuter1"></feOffset>
            <feGaussianBlur stdDeviation="2" in="shadowOffsetOuter1" result="shadowBlurOuter1"></feGaussianBlur>
            <feColorMatrix values="0 0 0 0 0   0 0 0 0 0   0 0 0 0 0  0 0 0 0.5 0" type="matrix" in="shadowBlurOuter1"></feColorMatrix>
        </filter>
    </defs>
    <g id="My-account" stroke="none" stroke-width="1" fill="none" fill-rule="evenodd">
        <rect fill="#FFFFFF" x="0" y="0" width="320" height="1024"></rect>
        <circle id="Mask" fill-opacity="0.704518138" fill="#D8D8D8" cx="160" cy="104" r="38"></circle>
        <g id="Group" transform="translate(138.000000, 386.000000)">
            <circle id="Mask-Copy" fill-opacity="0.704518138" fill="#D8D8D8" cx="22" cy="25" r="22"></circle>
            <text id="+-copy" font-family="Avenir-Light, Avenir" font-size="36" font-weight="300" fill="#FFFFFF">
                <tspan x="10.012" y="36">+</tspan>
            </text>
        </g>
        <g id="Group-Copy-3" transform="translate(138.000000, 299.000000)">
            <circle id="Mask-Copy" fill-opacity="0.704518138" fill="#D8D8D8" cx="22" cy="25" r="22"></circle>
            <text id="+-copy" font-family="Avenir-Light, Avenir" font-size="36" font-weight="300" fill="#FFFFFF">
                <tspan x="10.012" y="36">+</tspan>
            </text>
        </g>
        <g id="Group-Copy" transform="translate(138.000000, 477.000000)">
            <circle id="Mask-Copy" fill-opacity="0.704518138" fill="#D8D8D8" cx="22" cy="25" r="22"></circle>
            <text id="+-copy" font-family="Avenir-Light, Avenir" font-size="36" font-weight="300" fill="#FFFFFF">
                <tspan x="10.012" y="36">+</tspan>
            </text>
        </g>
        <g id="Group-Copy-2" transform="translate(138.000000, 666.000000)">
            <circle id="Mask-Copy" fill-opacity="0.704518138" fill="#D8D8D8" cx="22" cy="25" r="22"></circle>
            <text id="+-copy" font-family="Avenir-Light, Avenir" font-size="36" font-weight="300" fill="#FFFFFF">
                <tspan x="10.012" y="36">+</tspan>
            </text>
        </g>
        <g id="Group-Copy-4" transform="translate(138.000000, 569.000000)">
            <circle id="Mask-Copy" fill-opacity="0.704518138" fill="#D8D8D8" cx="22" cy="25" r="22"></circle>
            <text id="+-copy" font-family="Avenir-Light, Avenir" font-size="36" font-weight="300" fill="#FFFFFF">
                <tspan x="10.012" y="36">+</tspan>
            </text>
        </g>
        <text id="Country" font-family="LucidaGrande, Lucida Grande" font-size="12" font-weight="normal" fill="#4A4A4A">
            <tspan x="137.381836" y="191">Country</tspan>
        </text>
        <text id="Name-Family" font-family="LucidaGrande, Lucida Grande" font-size="14" font-weight="normal" fill="#4A4A4A">
            <tspan x="116.455078" y="175">Name Family</tspan>
        </text>
        <g id="H1" transform="translate(18.000000, 343.000000)" fill="#4A4A4A" font-family="Avenir-Book, Avenir" font-size="16" font-weight="normal" letter-spacing="1.1">
            <text id="Maria’s-Recipes">
                <tspan x="29.122" y="37">SAVED COOKING CLASSES </tspan>
            </text>
        </g>
        <g id="H1" transform="translate(18.000000, 434.000000)" fill="#4A4A4A" font-family="Avenir-Book, Avenir" font-size="16" font-weight="normal" letter-spacing="1.1">
            <text id="Maria’s-Recipes">
                <tspan x="76.514" y="37">SAVED RECIPES</tspan>
            </text>
        </g>
        <g id="H1" transform="translate(18.000000, 622.000000)" fill="#4A4A4A" font-family="Avenir-Book, Avenir" font-size="16" font-weight="normal" letter-spacing="1.1">
            <text id="Maria’s-Recipes">
                <tspan x="57.282" y="37">PUBLISHED RECIPES</tspan>
            </text>
        </g>
        <g id="H1" transform="translate(18.000000, 527.000000)" fill="#4A4A4A" font-family="Avenir-Book, Avenir" font-size="16" font-weight="normal" letter-spacing="1.1">
            <text id="Maria’s-Recipes">
                <tspan x="73.41" y="37">I’M FOLLOWING </tspan>
            </text>
        </g>
        <path d="M292.155,71.656 L290.649,71.657 C289.468,71.657 289.239,72.218 289.239,73.041 L289.239,74.857 L292.056,74.857 L291.689,77.702 L289.239,77.702 L289.239,85 L286.302,85 L286.302,77.702 L283.846,77.702 L283.846,74.857 L286.302,74.857 L286.302,72.76 C286.302,70.325 287.789,69 289.96,69 C291,69 291.894,69.077 292.155,69.112 L292.155,71.656 Z M288,61 C279.164,61 272,68.163 272,77 C272,85.836 279.164,93 288,93 C296.837,93 304,85.836 304,77 C304,68.163 296.837,61 288,61 L288,61 Z" id="Fill-183" fill="#444444"></path>
        <path d="M294.362,117.737 C294.368,117.878 294.372,118.019 294.372,118.162 C294.372,122.499 291.07,127.501 285.032,127.501 C283.178,127.501 281.453,126.958 280,126.027 C280.257,126.057 280.518,126.072 280.783,126.072 C282.321,126.072 283.736,125.548 284.86,124.667 C283.423,124.641 282.211,123.692 281.793,122.388 C281.994,122.426 282.199,122.446 282.411,122.446 C282.71,122.446 283,122.406 283.276,122.331 C281.774,122.03 280.643,120.703 280.643,119.113 L280.643,119.071 C281.085,119.317 281.592,119.465 282.13,119.482 C281.249,118.893 280.669,117.888 280.669,116.75 C280.669,116.148 280.831,115.584 281.114,115.099 C282.733,117.085 285.152,118.392 287.88,118.529 C287.824,118.289 287.795,118.038 287.795,117.781 C287.795,115.968 289.265,114.498 291.077,114.498 C292.022,114.498 292.875,114.897 293.473,115.535 C294.221,115.388 294.924,115.115 295.558,114.739 C295.313,115.505 294.792,116.148 294.115,116.555 C294.779,116.475 295.411,116.299 296,116.038 C295.56,116.696 295.003,117.274 294.362,117.737 M288,105 C279.163,105 272,112.163 272,121 C272,129.836 279.163,137 288,137 C296.837,137 304,129.836 304,121 C304,112.163 296.837,105 288,105" id="Fill-184" fill="#444444"></path>
        <g id="Group-2" transform="translate(272.000000, 149.000000)" fill="#444444">
            <path d="M16.0187,19.0878 C17.7177,19.0878 19.0957,17.7138 19.0957,16.0178 C19.0957,14.3228 17.7177,12.9488 16.0187,12.9488 C14.3197,12.9488 12.9417,14.3228 12.9417,16.0178 C12.9417,17.7138 14.3197,19.0878 16.0187,19.0878" id="Fill-202"></path>
            <path d="M19.5618,12.874 L21.7248,12.874 C21.9718,12.874 22.1728,12.674 22.1728,12.428 L22.1728,10.269 C22.1728,10.023 21.9718,9.823 21.7248,9.823 L19.5618,9.823 C19.3148,9.823 19.1138,10.023 19.1138,10.269 L19.1138,12.428 C19.1138,12.674 19.3148,12.874 19.5618,12.874" id="Fill-203"></path>
            <path d="M24,22.102 C24,23.15 23.149,24 22.098,24 L9.902,24 C8.852,24 8,23.15 8,22.102 L8,9.897 C8,8.849 8.852,8 9.902,8 L22.098,8 C23.149,8 24,8.849 24,9.897 L24,22.102 Z M16,0 C7.163,0 0,7.163 0,16 C0,24.836 7.163,32 16,32 C24.837,32 32,24.836 32,16 C32,7.163 24.837,0 16,0 L16,0 Z" id="Fill-204"></path>
            <path d="M20.8858,16.0182 C20.8858,18.6952 18.7028,20.8742 16.0188,20.8742 C13.3348,20.8742 11.1518,18.6952 11.1518,16.0182 C11.1518,15.5742 11.2118,15.1432 11.3248,14.7342 L9.8278,14.7342 L9.8278,21.6922 C9.8278,21.9392 10.0278,22.1392 10.2748,22.1392 L21.7618,22.1392 C22.0098,22.1392 22.2098,21.9392 22.2098,21.6922 L22.2098,14.7342 L20.7128,14.7342 C20.8258,15.1432 20.8858,15.5742 20.8858,16.0182" id="Fill-205"></path>
        </g>
        <g id="H1" transform="translate(18.000000, 252.000000)" fill="#4A4A4A" font-family="Avenir-Book, Avenir" font-size="16" font-weight="normal" letter-spacing="1.1">
            <text id="Maria’s-Recipes">
                <tspan x="98.72" y="37">MY STORY</tspan>
            </text>
        </g>
        <text id="+" font-family="Avenir-Light, Avenir" font-size="72" font-weight="300" fill="#FFFFFF">
            <tspan x="136" y="126">+</tspan>
        </text>
        <text id="Sign-out" font-family="LucidaGrande-Bold, Lucida Grande" font-size="12" font-weight="bold" fill="#FF4D1D" text-decoration="underline">
            <tspan x="20.5410156" y="79">Sign out</tspan>
        </text>
        <path d="M0,49.9325801 C8.21044186,47.937646 14.0429627,47.937646 17.4975624,49.9325801 C22.679462,52.9249813 30.6723808,52.9000723 44.799855,49.9325801 C58.9273291,46.965088 89.9502608,52.9249813 106.012389,52.9249813 C122.074517,52.9249813 145.311885,47.1178632 154.490244,47.1178632 C163.668603,47.1178632 165.243321,52.0747541 171.790629,52.0747541 C178.337936,52.0747541 183.281183,47.1178632 198.290891,47.1178632 C213.300598,47.1178632 211.680888,53.7752084 221.029434,52.9249813 C230.37798,52.0747541 225.010244,50.0787129 235.147127,47.1178632 C245.284011,44.1570135 265.788605,50.3079579 284.818247,49.9325801 C297.504674,49.6823283 309.231925,47.8838985 320,44.5372909 L320,0 L0,0 L0,49.9325801 Z" id="Path-3-Copy" fill="#FF4D1D"></path>
        <text id="Cooking-Classes" font-family="HiraKakuStd-W8, Hiragino Kaku Gothic Std" font-size="12" font-weight="600" line-spacing="14" fill="#FFFFFF">
            <tspan x="17.212" y="18">Cooking</tspan>
            <tspan x="18.94" y="32">Classes</tspan>
        </text>
        <text id="Global-Recipes" font-family="HiraKakuStd-W8, Hiragino Kaku Gothic Std" font-size="12" font-weight="600" line-spacing="14" fill="#FFFFFF">
            <tspan x="142.076" y="18">Global</tspan>
            <tspan x="136.316" y="32">Recipes</tspan>
        </text>
        <text id="My-Kitchen" font-family="HiraKakuStd-W8, Hiragino Kaku Gothic Std" font-size="12" font-weight="600" line-spacing="14" fill="#F8E71C">
            <tspan x="265.072" y="18">My</tspan>
            <tspan x="248.596" y="32">Kitchen</tspan>
        </text>
        <g id="Group-3" transform="translate(107.000000, 202.000000)">
            <text id="Vegiterian" font-family="LucidaGrande, Lucida Grande" font-size="12" font-weight="normal" line-spacing="14" fill="#4A4A4A">
                <tspan x="0" y="17">Vegiterian </tspan>
            </text>
            <g id="Material/Light/Switch-off" transform="translate(66.000000, 0.000000)">
                <rect id="bounds" x="0" y="0" width="40" height="24"></rect>
                <path d="M30,19 L10,19 C6.1,19 3,15.9 3,12 C3,8.1 6.1,5 10,5 L30,5 C33.9,5 37,8.1 37,12 C37,15.9 33.9,19 30,19 Z" id="track" fill="#CFCFCF" fill-rule="evenodd" opacity="0.5"></path>
                <g id="knob">
                    <use fill="black" fill-opacity="1" filter="url(#filter-4)" xlink:href="#path-3"></use>
                    <circle stroke="url(#linearGradient-1)" stroke-width="0.5" stroke-linejoin="square" fill="#9B9B9B" fill-rule="evenodd" cx="11" cy="12" r="9.75"></circle>
                    <circle stroke="url(#linearGradient-2)" stroke-width="0.5" stroke-linejoin="square" cx="11" cy="12" r="9.75"></circle>
                </g>
            </g>
        </g>
        <g id="H1" transform="translate(0.000000, 717.000000)" fill="#4A4A4A" font-family="Avenir-Book, Avenir" font-size="16" font-weight="normal" letter-spacing="1.1">
            <text id="Maria’s-Recipes">
                <tspan x="71.704" y="37">UPCOMING CLASSES </tspan>
            </text>
        </g>
        <g id="H1" transform="translate(0.000000, 1006.000000)" fill="#4A4A4A" font-family="Avenir-Book, Avenir" font-size="16" font-weight="normal" letter-spacing="1.1">
            <text id="Maria’s-Recipes">
                <tspan x="135.134" y="37">RECIPES</tspan>
            </text>
        </g>
        <g id="calendar-event-with-signin" transform="translate(11.000000, 775.000000)">
            <g id="Rectangle-Copy-2">
                <use fill="black" fill-opacity="1" filter="url(#filter-6)" xlink:href="#path-5"></use>
                <use fill="#FFFFFF" fill-rule="evenodd" xlink:href="#path-5"></use>
            </g>
            <path d="M27.3529412,51 C33.8671875,51 33.8671875,56.6666667 27.3529412,68 C20.8386949,56.6666667 20.8386949,51 27.3529412,51 Z M27.3529412,54 C25.891011,54 24.7058824,55.3431458 24.7058824,57 C24.7058824,58.6568542 25.891011,60 27.3529412,60 C28.8148714,60 30,58.6568542 30,57 C30,55.3431458 28.8148714,54 27.3529412,54 Z" id="Combined-Shape" fill="#FF4D1D" fill-rule="evenodd"></path>
            <text id="Publix-Super-Market" font-family="Avenir-Medium, Avenir" font-size="11" font-weight="400" fill="#4A4A4A">
                <tspan x="41.4705882" y="63">Publix Super Market at Hickory Flat Village …</tspan>
            </text>
            <text id="Dec-23,-2019-6:30-PM" font-family="Avenir-Light, Avenir" font-size="12" font-weight="300" fill="#FF4D1D">
                <tspan x="23.8235294" y="22">Dec 23, 2019   6:30 PM</tspan>
            </text>
            <text id="What’s-cooking" font-family="HiraKakuStd-W8, Hiragino Kaku Gothic Std" font-size="11" font-weight="600" letter-spacing="0.5" fill="#FF4D1D">
                <tspan x="185.884294" y="87">What’s cooking</tspan>
            </text>
            <text id="Romania-christmas-tr" font-family="Avenir-Book, Avenir" font-size="18" font-weight="normal" letter-spacing="0.3" fill="#4A4A4A">
                <tspan x="23.8235294" y="44">Romania christmas traditions</tspan>
            </text>
            <text id="I’m-going" font-family="HiraKakuStd-W8, Hiragino Kaku Gothic Std" font-size="11" font-weight="600" fill="#FF4D1D">
                <tspan x="22.0588235" y="87">I’m going</tspan>
            </text>
            <rect id="Rectangle" stroke="#FF4D1D" stroke-width="1" x="85.0588235" y="75" width="13.2352941" height="15" rx="3"></rect>
        </g>
        <g id="calendar-event-with-signin" transform="translate(10.000000, 895.000000)">
            <g id="Rectangle-Copy-2">
                <use fill="black" fill-opacity="1" filter="url(#filter-8)" xlink:href="#path-7"></use>
                <use fill="#FFFFFF" fill-rule="evenodd" xlink:href="#path-7"></use>
            </g>
            <path d="M27.3529412,51 C33.8671875,51 33.8671875,56.6666667 27.3529412,68 C20.8386949,56.6666667 20.8386949,51 27.3529412,51 Z M27.3529412,54 C25.891011,54 24.7058824,55.3431458 24.7058824,57 C24.7058824,58.6568542 25.891011,60 27.3529412,60 C28.8148714,60 30,58.6568542 30,57 C30,55.3431458 28.8148714,54 27.3529412,54 Z" id="Combined-Shape" fill="#FF4D1D" fill-rule="evenodd"></path>
            <text id="Publix-Super-Market" font-family="Avenir-Medium, Avenir" font-size="11" font-weight="400" fill="#4A4A4A">
                <tspan x="41.4705882" y="63">Publix Super Market at Hickory Flat Village …</tspan>
            </text>
            <text id="Dec-23,-2019-6:30-PM" font-family="Avenir-Light, Avenir" font-size="12" font-weight="300" fill="#FF4D1D">
                <tspan x="23.8235294" y="22">Jan 20 2020   7:30 PM</tspan>
            </text>
            <text id="What’s-cooking" font-family="HiraKakuStd-W8, Hiragino Kaku Gothic Std" font-size="11" font-weight="600" letter-spacing="0.5" fill="#FF4D1D">
                <tspan x="185.884294" y="87">What’s cooking</tspan>
            </text>
            <text id="Romania-christmas-tr" font-family="Avenir-Book, Avenir" font-size="18" font-weight="normal" letter-spacing="0.3" fill="#4A4A4A">
                <tspan x="23.8235294" y="44">Bolivian Spicy Chicken</tspan>
            </text>
            <text id="I’m-going" font-family="HiraKakuStd-W8, Hiragino Kaku Gothic Std" font-size="11" font-weight="600" fill="#FF4D1D">
                <tspan x="22.0588235" y="87">I’m going</tspan>
            </text>
            <rect id="Rectangle" stroke="#FF4D1D" stroke-width="1" x="85.0588235" y="75" width="13.2352941" height="15" rx="3"></rect>
        </g>
    </g>
</svg>